<svg xmlns="http://www.w3.org/2000/svg" width="928" height="500" viewBox="0 0 928 500" style="font-size:12px;font-family:sans-serif;color:#e6edf3;"><g class="area"><path fill="#ffc105" stroke="none" stroke-width="1.0" d="M45,391.166L45.476,389.722L45.951,387.333L46.427,386.593L47.854,386.675L48.806,386.901L49.282,386.271L49.757,386.265L50.233,385.984L51.660,383.855L52.136,383.074L52.612,381.828L52.612,381.513L53.088,380.555L54.515,380.130L54.991,381.390L55.466,381.513L55.942,380.076L56.418,379.679L57.845,378.337L58.321,377.269L58.797,377.714L59.272,379.220L59.748,377.214L61.651,376.714L62.127,373.688L62.603,372.031L63.554,373.942L64.981,371.936L65.457,371.018L65.933,370.354L66.409,370.060L66.884,369.772L67.836,372.716L68.312,372.586L68.787,374.558L69.263,373.702L69.739,372.504L71.166,369.361L71.642,370.340L72.118,371.785L72.593,370.176L73.069,370.792L74.496,371.244L74.972,373.086L75.448,371.552L75.924,372.463L76.399,371.450L78.302,371.984L78.778,367.937L79.730,364.117L80.205,364.425L81.633,365.774L81.633,364.391L82.108,364.364L82.584,363.214L83.060,360.708L84.487,360.455L84.963,359.900L85.439,360.441L85.914,359.154L86.390,356.587L87.817,356.621L88.293,362.652L88.769,361.030L89.245,355.046L89.720,356.518L91.148,358.175L91.623,364.795L92.575,362.577L93.051,361.557L93.526,364.733L94.954,362.406L95.429,362.556L95.905,363.255L96.381,368.471L96.381,369.423L97.808,367.513L98.284,370.087L98.760,372.915L99.235,374.866L99.711,371.436L101.138,371.326L101.614,367.664L102.090,364.282L102.566,365.267L103.041,362.372L104.469,364.460L104.944,368.177L105.420,363.207L105.896,361.721L106.372,360.194L108.750,356.306L109.226,361.372L109.702,362.570L110.178,364.788L111.129,361.406L111.605,362.241L112.081,361.310L112.556,361.071L113.032,359.969L114.459,360.242L114.935,358.524L115.411,358.627L115.887,358.942L116.362,356.313L117.790,353.485L118.265,350.131L118.741,350.411L119.217,349.227L119.693,349.932L121.596,347.967L122.071,346.523L122.547,346.886L123.023,348.036L123.499,344.469L124.926,340.046L125.402,340.080L125.402,340.813L125.877,343.935L126.353,340.498L127.780,340.683L128.256,338.903L128.732,336.733L129.208,336.219L129.683,338.328L131.111,335.630L131.586,327.552L132.062,327.709L132.538,329.866L133.014,328.552L134.441,328.285L134.936,326.977L135.412,324.957L136.364,326.676L136.839,326.381L138.267,327.538L138.742,323.698L139.218,327.456L139.694,334.871L140.170,341.785L141.121,349.734L141.597,338.643L142.073,341.279L142.548,342.518L143.024,341.087L144.451,342.757L144.927,339.403L145.403,339.670L146.354,337.561L147.782,336.876L148.257,335.322L148.733,331.619L149.209,328.832L149.685,330.249L151.588,332.550L152.063,331.899L152.539,328.004L153.015,324.957L153.491,321.979L154.442,322.041L154.918,325.923L155.394,324.334L155.869,323.670L156.345,324.656L157.772,328.757L158.248,329.729L158.724,329.633L159.200,326.833L159.675,322.246L161.103,318.898L162.054,318.796L162.530,319.056L163.006,318.193L164.433,319.391L165.860,321.610L166.336,321.548L166.812,331.735L168.239,333.385L168.715,337.760L169.190,332.180L169.190,333.125L169.666,336.774L171.093,332.604L171.569,339.273L172.045,345.708L172.521,344.852L172.996,344.530L174.899,348.446L175.375,359.791L175.851,362.166L176.327,365.993L177.754,365.993L178.230,364.946L178.705,364.508L179.181,362.330L180.133,363.433L181.560,364.870L182.036,366.438L182.511,371.477L182.987,371.997L183.463,369.094L184.414,366.377L184.890,369.519L185.366,366.411L185.842,367.739L186.317,369.676L188.220,371.354L188.696,370.231L189.172,371.792L189.648,373.216L191.075,373.024L191.551,373.428L192.026,370.820L192.502,366.062L192.978,369.409L194.881,371.662L195.357,369.683L195.832,369.772L196.308,372.209L196.784,371.306L197.735,373.058L198.211,367.814L198.687,368.718L199.163,367.410L199.638,368.321L201.066,368.239L201.541,364.069L202.017,366.226L202.493,363.761L204.396,359.476L204.872,358.483L205.347,355.690L205.823,358.983L206.299,357.093L207.726,356.758L208.658,352.629L209.134,354.026L209.609,351.205L210.085,350.199L211.512,348.275L211.988,350.363L212.464,351.322L212.464,349.193L212.940,354.266L214.367,353.828L214.843,353.417L215.318,349.775L215.794,349.234L216.270,344.750L217.697,339.875L218.173,345.325L218.649,343.483L219.124,339.341L219.600,338.800L221.027,337.082L221.503,335.158L221.979,335.911L222.930,331.769L223.406,331.126L224.833,328.531L225.309,327.210L225.785,329.996L226.260,328.305L226.736,329.407L227.688,326.183L228.163,324.950L228.639,327.484L229.115,325.108L229.591,326.552L231.018,329.305L231.494,327.730L231.969,333.008L232.445,333.789L232.921,330.968L234.824,327.367L235.300,326.970L235.775,327.189L236.251,325.779L238.154,327.593L238.630,328.093L239.106,328.216L239.581,325.313L240.057,327.908L241.484,330.667L241.484,327.908L241.960,331.215L242.436,336.384L242.912,336.993L244.339,333.933L244.815,330.790L245.290,332.625L245.766,331.153L246.242,335.007L247.669,336.452L248.145,336.390L248.621,333.556L249.096,339.807L249.572,338.554L250.999,340.368L251.951,335.411L252.427,339.861L252.902,338.533L254.805,335.083L255.281,332.077L255.757,335.706L255.757,334.076L256.233,336.849L257.660,335.959L258.136,338.862L258.611,336.692L259.087,337.376L259.563,341.936L260.990,341.155L261.466,344.079L261.942,341.176L262.417,346.126L262.893,344.010L264.320,349.295L264.796,347.461L265.272,345.544L265.748,346.180L266.699,347.748L268.126,350.096L268.602,345.023L269.078,342.593L269.554,343.017L270.029,338.923L270.981,336.178L271.457,334.008L271.932,332.248L272.408,332.235L272.884,334.686L274.311,334.925L274.787,336.199L275.263,334.617L275.738,335.678L276.214,333.967L277.641,336.870L278.117,336.123L278.593,335.418L279.069,336.055L279.544,338.937L281.923,341.224L282.399,340.697L282.875,344.626L283.350,345.338L284.778,346.886L285.253,351.158L285.253,351.205L285.729,350.493L286.205,353.033L287.632,358.907L288.108,359.236L288.584,367.486L289.059,363.200L289.535,358.531L290.962,365.281L291.438,368.163L291.914,366.883L292.390,364.679L292.865,367.205L294.293,382.937L294.768,377.187L295.720,380.295L296.196,386.470L296.671,388.544L298.099,387.812L298.574,393.960L299.050,393.528L299.526,394.247L299.526,388.729L300.953,379.514L301.429,383.745L301.905,387.942L302.380,385.245L302.856,388.318L304.283,387.606L304.759,392.365L305.235,388.681L305.711,387.750L306.186,389.017L307.614,391.954L308.109,386.600L308.585,383.423L309.061,378.980L309.536,381.342L311.439,381.774L311.915,379.015L312.391,384.279L312.867,387.155L313.342,387.743L314.294,389.359L314.770,390.119L315.245,393.302L315.721,388.976L316.197,393.220L317.624,394.658L318.100,393.446L318.576,395.925L319.051,399.895L319.527,398.464L320.954,391.365L321.430,392.837L321.906,389.962L322.382,389.962L322.857,391.557L324.760,394.117L325.236,391.694L325.712,389.345L326.188,392.419L326.663,390.646L328.091,386.730L328.566,386.497L328.566,387.764L329.042,389.962L329.518,387.723L330.945,390.133L331.421,389.667L331.897,393.960L332.372,393.775L332.848,393.385L334.275,396.301L334.751,395.863L335.227,396.780L335.703,396.780L336.178,396.253L337.606,395.705L338.081,395.925L338.557,396.568L339.509,396.568L339.984,392.871L341.412,390.249L341.887,391.317L342.363,392.693L342.839,391.536L343.315,392.988L344.266,394.302L344.742,394.952L345.218,396.582L345.693,397.917L346.169,398.636L348.072,401.463L348.548,398.293L349.024,394.507L349.499,394.507L350.927,393.631L351.402,392.885L351.878,390.509L352.354,391.331L352.830,393.296L354.733,392.351L355.208,391.344L355.684,390.954L356.160,388.962L356.636,386.730L358.063,384.820L358.063,388.024L358.539,388.716L359.014,387.038L359.490,387.114L361.393,390.283L361.869,390.393L362.345,392.946L362.820,392.563L364.248,395.473L364.723,393.213L365.199,392.590L365.675,393.939L366.151,393.857L368.054,394.795L368.529,394.501L369.005,392.584L369.481,394.179L369.957,396.602L371.384,398.102L371.384,394.323L371.860,391.550L372.335,389.037L372.811,389.325L374.238,389.674L374.714,386.771L375.190,385.498L375.666,385.429L376.141,385.450L377.569,381.294L378.044,382.088L378.520,382.095L378.996,379.781L379.472,381.849L380.899,383.465L381.355,383.033L382.306,380.589L382.782,377.837L383.258,375.591L384.685,373.907L385.161,376.269L385.637,375.366L386.112,373.141L386.112,373.141L387.540,372.696L388.015,374.003L388.491,374.462L388.967,371.853L389.443,370.505L390.870,372.504L391.346,371.641L391.821,371.812L392.297,369.149L392.773,370.176L394.200,369.608L394.676,370.176L395.151,369.327L395.627,368.855L396.579,367.890L398.006,364.583L398.482,364.145L398.957,364.288L399.433,366.644L399.909,366.555L400.860,366.294L401.336,369.820L401.812,373.195L402.288,370.827L402.763,371.189L404.191,368.293L404.666,367.746L405.142,368.827L405.618,369.984L406.094,371.135L407.997,365.466L408.472,363.912L408.948,362.529L409.424,362.022L411.327,359.599L411.803,359.503L412.278,358.503L412.754,356.593L413.230,355.957L414.657,356.518L415.133,357.292L415.133,358.983L415.609,359.188L416.084,361.228L417.512,361.831L417.987,361.653L418.463,362.180L418.939,361.974L419.415,359.510L420.842,360.954L421.318,363.255L421.793,361.742L422.269,359.250L422.745,357.483L424.172,357.805L424.648,357.490L425.599,357.216L426.075,359.140L426.551,359.140L427.978,360.105L428.454,362.303L428.930,361.057L429.405,361.646L429.405,360.167L430.833,357.552L431.308,357.600L431.784,354.444L432.260,354.006L432.736,351.110L434.163,350.315L434.639,351.274L435.114,347.693L435.590,346.954L436.066,345.468L437.493,345.393L437.969,345.462L438.445,345.441L438.920,343.551L439.396,343.141L441.299,341.059L441.775,341.662L442.251,341.963L442.726,342.785L443.202,341.689L444.154,342.230L445.105,341.826L445.581,339.697L446.057,340.820L447.484,345.742L447.960,342.723L448.435,342.312L448.911,341.128L449.387,339.149L450.814,339.259L451.290,339.026L451.766,340.389L452.241,338.992L452.717,338.581L454.144,339.841L455.096,341.833L455.572,341.915L456.047,340.977L456.523,338.403L458.426,336.609L458.902,337.835L458.902,336.863L459.378,337.137L460.805,336.069L461.281,335.083L461.756,330.489L462.232,328.654L462.708,328.332L464.135,329.017L464.611,328.702L465.087,328.004L465.562,329.154L466.038,330.147L467.465,327.559L467.941,328.086L468.417,328.107L469.368,331.180L469.844,328.415L471.271,327.648L471.747,324.916L472.223,324.752L472.699,325.423L473.174,324.601L474.126,324.369L474.602,324.909L475.077,324.040L475.553,324.540L476.029,326.258L477.456,325.019L477.932,318.926L478.408,314.709L478.883,314.517L479.359,315.380L480.786,316.379L481.282,319.877L481.758,323.280L482.233,320.576L482.709,325.950L484.612,325.395L485.088,325.779L485.564,324.369L486.039,322.164L486.515,321.952L487.942,317.077L487.942,316.037L488.418,315.852L488.894,316.715L489.370,315.030L490.797,313.538L491.273,313.285L491.748,313.997L492.224,317.728L492.700,318.132L494.127,314.051L494.603,315.037L495.079,315.208L495.554,315.208L496.030,317.673L497.457,318.139L498.409,320.151L498.885,320.658L499.360,320.487L499.836,322.650L501.263,325.642L501.739,325.012L502.215,319.583L502.215,320.521L502.691,321.726L504.118,320.144L504.594,322.068L505.069,321.479L505.545,323.650L506.021,321.206L507.448,319.289L507.924,317.830L508.400,316.639L508.875,311.888L509.351,311.888L510.778,310.129L511.254,311.847L511.730,310.108L512.206,310.731L513.157,310.731L514.584,308.485L515.060,308.232L515.536,310.567L516.012,310.834L516.487,309.875L517.439,311.155L517.915,312.792L518.390,310.786L518.866,311.621L519.342,314.017L520.769,314.017L521.245,307.780L521.721,310.053L522.196,312.552L522.672,319.617L524.099,315.968L524.575,314.010L525.051,312.682L525.527,318.563L526.002,323.513L527.905,321.685L528.381,320.911L528.857,318.604L529.333,323.520L529.808,321.185L531.236,322.102L531.711,320.685L531.711,321.418L532.187,318.987L532.663,317.817L534.090,317.817L534.566,315.749L535.042,316.331L535.517,316.071L535.993,316.934L537.420,317.789L537.896,320.090L538.372,317.625L538.848,316.708L539.323,314.914L541.226,311.922L541.702,312.018L542.178,311.689L542.654,310.745L543.129,305.103L544.557,305.014L545.032,302.317L545.032,301.071L545.508,300.619L545.984,299.866L547.411,301.756L547.887,301.338L548.363,301.564L548.838,301.201L549.314,302.844L550.741,301.133L551.217,298.661L551.693,297.970L552.169,299.832L552.644,296.922L554.072,295.902L554.528,293.540L555.003,294.115L555.955,293.451L556.431,293.451L557.858,291.726L558.334,291.007L558.809,290.282L559.285,290.727L559.761,289.467L560.712,289.125L561.188,289.029L561.664,286.797L562.140,284.586L562.615,285.626L564.043,285.852L564.518,287.550L564.994,277.534L565.470,272.571L565.946,269.586L567.373,270.496L567.849,275.603L568.324,275.905L568.800,271.085L569.276,276.254L571.179,272.653L571.654,277.904L572.130,279.752L572.606,286.413L573.082,293.527L574.033,281.115L574.509,279.382L574.985,275.569L575.460,278.123L575.936,281.231L577.363,280.957L577.839,282.230L578.315,284.983L578.791,292.226L579.266,289.104L580.694,286.064L581.169,287.119L581.645,287.879L582.121,281.553L582.597,279.136L584.024,279.136L584.975,276.432L585.451,274.296L585.927,274.864L586.403,279.766L587.830,283.203L588.306,284.305L588.781,288.502L588.781,283.497L589.257,281.443L590.684,280.916L591.160,277.212L591.636,272.037L592.112,268.874L592.587,267.367L594.015,270.037L594.490,267.518L594.966,269.490L595.442,270.838L595.918,272.413L597.345,271.318L597.821,279.622L598.296,282.799L599.248,284.887L599.724,285.941L601.151,285.941L601.627,284.784L602.102,277.917L602.578,278.308L603.054,277.260L604.005,278.862L604.481,282.614L604.957,281.977L605.433,282.853L605.908,283.915L607.336,286.872L607.811,282.552L608.287,280.943L608.763,277.671L609.239,277.041L610.666,277.493L611.142,274.207L611.617,276.343L612.093,278.294L612.569,278.883L614.472,275.733L614.948,275.679L615.423,274.960L615.899,275.836L616.375,276.938L617.802,275.802L617.802,277.404L618.278,283.716L618.754,282.621L619.229,284.462L620.657,285.462L621.132,282.497L621.608,281.744L622.084,283.928L622.560,284.093L623.987,286.722L624.463,290.740L624.938,288.714L625.414,290.501L625.890,289.583L627.317,288.981L627.793,288.570L628.744,283.620L629.220,282.361L629.696,277.842L631.123,277.842L631.599,278.499L632.075,275.001L632.550,274.898L632.550,274.665L633.978,272.180L634.453,271.482L634.929,270.003L635.405,265.656L635.881,266.477L637.308,261.096L637.784,260.727L638.259,258.002L638.735,257.201L639.211,254.873L640.638,255.667L641.114,258.611L641.590,258.262L642.065,260.740L643.017,261.582L644.444,264.239L644.920,257.187L645.396,257.016L645.871,256.996L646.347,253.675L647.299,252.792L647.774,250.615L648.250,249.520L648.726,248.034L649.202,239.524L650.629,237.292L651.105,243.118L651.580,242.406L652.056,243.098L652.532,244.501L653.959,243.563L654.435,244.104L654.911,244.255L655.386,246.028L655.862,248.944L657.785,246.754L658.261,243.207L658.736,240.852L659.212,237.107L659.688,237.888L661.115,236.868L661.591,238.607L661.591,237.272L662.067,238.210L662.542,244.118L663.970,244.796L664.445,248.527L664.921,249.273L665.397,243.844L665.873,245.008L667.300,240.469L667.776,243.639L668.251,239.483L669.203,239.346L670.630,238.066L671.106,241.982L672.057,238.388L672.533,237.190L673.009,237.676L674.436,235.820L674.912,237.149L675.388,235.232L675.863,236.087L675.863,235.540L677.291,234.780L677.766,235.725L678.242,235.677L678.718,235.067L679.194,235.505L680.621,234.410L681.097,233.048L681.572,232.390L682.048,233.458L683.951,232.719L684.427,232.178L684.903,232.301L685.378,233.417L685.854,234.170L687.757,229.371L688.233,228.194L688.709,226.338L689.184,226.523L689.660,224.887L690.612,220.547L691.087,221.108L691.563,219.205L692.039,218.342L692.515,216.425L694.418,221.786L694.893,223.025L695.369,227.242L695.845,231.322L697.272,223.977L697.748,221.272L698.224,219.595L698.699,220.033L699.175,224.901L700.602,222.696L701.554,218.787L702.030,219.273L702.505,219.876L702.981,217.781L704.408,214.098L704.884,211.825L705.360,209.798L705.360,212.276L705.836,210.695L707.263,209.100L707.739,208.607L708.214,206.396L708.690,209.702L709.166,215.001L711.069,223.182L711.545,220.437L712.020,220.259L712.496,216.644L713.923,213.187L714.875,215.857L715.351,213.933L715.826,208.840L716.302,208.538L717.729,211.715L718.205,211.441L718.681,213.694L718.681,217.664L719.157,214.022L720.584,212.947L721.060,218.513L721.535,229.070L722.011,225.900L722.487,228.618L723.914,222.710L724.390,221.409L724.866,222.785L725.341,218.828L725.817,214.330L727.244,215.083L727.700,214.727L728.176,216.323L728.652,216.405L729.603,219.109L731.031,221.416L731.506,222.991L731.982,223.573L732.458,223.545L732.934,225.613L733.885,228.529L734.361,227.434L734.837,224.880L735.312,227.420L735.788,230.816L737.215,227.810L737.691,223.696L738.167,220.581L738.643,214.905L740.546,213.324L741.021,215.097L741.497,215.282L741.973,217.610L742.449,215.296L744.351,217.931L744.827,216.617L745.303,215.679L745.779,217.610L746.254,217.671L747.682,217.028L747.682,215.761L748.157,217.281L748.633,217.733L749.109,221.888L750.536,226.818L751.012,224.873L751.488,222.320L751.963,221.868L752.439,225.503L753.866,226.065L754.342,227.578L754.818,224.435L755.294,225.654L755.769,224.004L757.672,216.870L758.624,218.459L759.100,218.055L759.575,219.876L761.003,223.573L761.478,227.680L761.954,227.543L762.430,228.057L762.430,231.884L763.857,231.405L764.333,227.406L764.809,231.302L765.284,232.390L765.760,235.745L767.187,239.127L767.663,232.295L768.139,234.136L768.615,228.235L769.090,231.576L770.518,227.680L770.993,225.476L771.469,226.311L771.945,225.195L772.896,219.999L774.799,215.775L775.275,214.180L775.751,210.455L776.227,208.737L777.178,212.646L777.654,212.817L778.130,209.894L778.605,210.065L779.081,205.170L780.508,199.091L780.984,197.003L781.460,190.122L781.936,189.855L782.411,185.741L783.839,182.181L784.314,178.819L784.790,186.227L785.266,186.754L785.742,187.671L787.645,183.379L788.120,188.746L788.596,186.241L789.072,196.647L789.548,199.214L790.975,213.187L791.451,198.947L791.451,206.012L791.926,199.159L792.402,196.907L793.829,192.512L794.305,194.518L794.781,194.545L795.257,204.397L795.732,211.256L797.160,210.976L797.635,199.228L798.111,197.461L798.587,199.146L799.063,192.395L800.490,188.021L800.966,188.007L801.441,191.539L802.393,194.141L802.869,198.920L804.772,195.024L805.247,192.156L805.723,192.012L806.199,196.571L807.150,194.887L807.626,191.683L808.102,188.479L808.578,185.974L809.053,180.812L810.481,173.192L810.956,171.946L811.432,172.843L811.908,179.908L812.384,178.210L813.811,178.984L814.287,181.660L814.762,183.201L815.238,187.610L815.714,193.942L817.617,198.543L818.093,199.981L818.568,196.044L819.044,196.647L819.520,201.829L820.471,188.815L820.947,180.955L821.423,179.655L821.899,175.383L822.374,166.092L823.802,167.468L824.277,165.928L824.753,182.099L825.229,184.365L825.705,186.035L827.132,177.204L827.608,182.681L828.083,180.743L828.559,177.943L829.035,177.765L830.462,177.881L831.433,183.543L831.909,182.927L832.385,179.052L832.861,180.990L834.288,181.339L834.764,176.889L835.239,184.385L835.239,191.272L835.715,191.683L837.142,195.353L837.618,188.801L838.094,191.581L838.570,196.619L839.045,198.310L840.473,202.370L840.948,197.235L841.424,203.753L842.376,206.094L843.803,197.502L844.279,199.502L844.754,193.340L845.706,189.417L846.182,188.205L847.609,185.939L848.085,187.350L848.560,188.623L849.036,187.548L849.512,185.522L850.463,186.740L850.939,188.815L851.415,194.716L851.891,195.572L852.366,194.148L853.794,193.333L854.269,183.927L854.745,183.591L855.221,182.147L855.697,178.806L857.600,176.683L858.075,179.346L858.551,177.649L859.027,177.731L861.406,173.466L861.881,171.953L862.357,168.810L862.833,165.818L864.260,166.277L864.260,165.243L864.736,165.716L865.212,166.510L865.687,167.592L867.590,164.244L868.066,161.225L868.542,162.156L869.018,167.256L870.445,162.389L870.921,167.181L871.396,149.210L871.872,150.599L872.348,148.785L873.775,144.862L874.251,142.487L875.202,142.685L875.678,143.418L876.154,140.296L877.581,137.359L878.057,134.032L878.533,128.658L879.008,117.368L879.008,117.197L880.436,110.912L880.911,106.216L881.387,114.287L881.863,111.179L882.339,111.241L884.242,102.526L884.717,103.765L885.193,101.471L885.669,97.350L887.096,95.057L887.572,88.450L888.048,83.637L888.999,82.247L889.475,81.761L890.902,89.990L891.378,91.976L891.854,91.681L892.329,83.945L892.805,81.768L893.757,77.092L894.232,66.070L894.708,51.364L895.184,54.117L895.660,54.110L897.087,43.478L897.563,40.150L898.038,42.519L898.514,44.683L898.990,46.935L900.417,39.452L900.873,34.318L901.349,32.168L901.825,37.480L902.300,44.539L904.203,31.476L904.679,24.158L905.155,27.588L905.631,21.173L907.534,19.427L907.534,24.760L908.009,26.294L908.485,28.642L908.961,40.650L910.388,57.834L910.864,37.590L911.340,38.521L911.815,52.830L912.291,62.729L913.718,63.605L914.194,71.424L914.670,37.385L915.146,38.959L915.621,42.177L917.049,55.198L918,56.465L918,455L917.049,455L915.621,455L915.146,455L914.670,455L914.194,455L913.718,455L912.291,455L911.815,455L911.340,455L910.864,455L910.388,455L908.961,455L908.485,455L908.009,455L907.534,455L907.534,455L905.631,455L905.155,455L904.679,455L904.203,455L902.300,455L901.825,455L901.349,455L900.873,455L900.417,455L898.990,455L898.514,455L898.038,455L897.563,455L897.087,455L895.660,455L895.184,455L894.708,455L894.232,455L893.757,455L892.805,455L892.329,455L891.854,455L891.378,455L890.902,455L889.475,455L888.999,455L888.048,455L887.572,455L887.096,455L885.669,455L885.193,455L884.717,455L884.242,455L882.339,455L881.863,455L881.387,455L880.911,455L880.436,455L879.008,455L879.008,455L878.533,455L878.057,455L877.581,455L876.154,455L875.678,455L875.202,455L874.251,455L873.775,455L872.348,455L871.872,455L871.396,455L870.921,455L870.445,455L869.018,455L868.542,455L868.066,455L867.590,455L865.687,455L865.212,455L864.736,455L864.260,455L864.260,455L862.833,455L862.357,455L861.881,455L861.406,455L859.027,455L858.551,455L858.075,455L857.600,455L855.697,455L855.221,455L854.745,455L854.269,455L853.794,455L852.366,455L851.891,455L851.415,455L850.939,455L850.463,455L849.512,455L849.036,455L848.560,455L848.085,455L847.609,455L846.182,455L845.706,455L844.754,455L844.279,455L843.803,455L842.376,455L841.424,455L840.948,455L840.473,455L839.045,455L838.570,455L838.094,455L837.618,455L837.142,455L835.715,455L835.239,455L835.239,455L834.764,455L834.288,455L832.861,455L832.385,455L831.909,455L831.433,455L830.462,455L829.035,455L828.559,455L828.083,455L827.608,455L827.132,455L825.705,455L825.229,455L824.753,455L824.277,455L823.802,455L822.374,455L821.899,455L821.423,455L820.947,455L820.471,455L819.520,455L819.044,455L818.568,455L818.093,455L817.617,455L815.714,455L815.238,455L814.762,455L814.287,455L813.811,455L812.384,455L811.908,455L811.432,455L810.956,455L810.481,455L809.053,455L808.578,455L808.102,455L807.626,455L807.150,455L806.199,455L805.723,455L805.247,455L804.772,455L802.869,455L802.393,455L801.441,455L800.966,455L800.490,455L799.063,455L798.587,455L798.111,455L797.635,455L797.160,455L795.732,455L795.257,455L794.781,455L794.305,455L793.829,455L792.402,455L791.926,455L791.451,455L791.451,455L790.975,455L789.548,455L789.072,455L788.596,455L788.120,455L787.645,455L785.742,455L785.266,455L784.790,455L784.314,455L783.839,455L782.411,455L781.936,455L781.460,455L780.984,455L780.508,455L779.081,455L778.605,455L778.130,455L777.654,455L777.178,455L776.227,455L775.751,455L775.275,455L774.799,455L772.896,455L771.945,455L771.469,455L770.993,455L770.518,455L769.090,455L768.615,455L768.139,455L767.663,455L767.187,455L765.760,455L765.284,455L764.809,455L764.333,455L763.857,455L762.430,455L762.430,455L761.954,455L761.478,455L761.003,455L759.575,455L759.100,455L758.624,455L757.672,455L755.769,455L755.294,455L754.818,455L754.342,455L753.866,455L752.439,455L751.963,455L751.488,455L751.012,455L750.536,455L749.109,455L748.633,455L748.157,455L747.682,455L747.682,455L746.254,455L745.779,455L745.303,455L744.827,455L744.351,455L742.449,455L741.973,455L741.497,455L741.021,455L740.546,455L738.643,455L738.167,455L737.691,455L737.215,455L735.788,455L735.312,455L734.837,455L734.361,455L733.885,455L732.934,455L732.458,455L731.982,455L731.506,455L731.031,455L729.603,455L728.652,455L728.176,455L727.700,455L727.244,455L725.817,455L725.341,455L724.866,455L724.390,455L723.914,455L722.487,455L722.011,455L721.535,455L721.060,455L720.584,455L719.157,455L718.681,455L718.681,455L718.205,455L717.729,455L716.302,455L715.826,455L715.351,455L714.875,455L713.923,455L712.496,455L712.020,455L711.545,455L711.069,455L709.166,455L708.690,455L708.214,455L707.739,455L707.263,455L705.836,455L705.360,455L705.360,455L704.884,455L704.408,455L702.981,455L702.505,455L702.030,455L701.554,455L700.602,455L699.175,455L698.699,455L698.224,455L697.748,455L697.272,455L695.845,455L695.369,455L694.893,455L694.418,455L692.515,455L692.039,455L691.563,455L691.087,455L690.612,455L689.660,455L689.184,455L688.709,455L688.233,455L687.757,455L685.854,455L685.378,455L684.903,455L684.427,455L683.951,455L682.048,455L681.572,455L681.097,455L680.621,455L679.194,455L678.718,455L678.242,455L677.766,455L677.291,455L675.863,455L675.863,455L675.388,455L674.912,455L674.436,455L673.009,455L672.533,455L672.057,455L671.106,455L670.630,455L669.203,455L668.251,455L667.776,455L667.300,455L665.873,455L665.397,455L664.921,455L664.445,455L663.970,455L662.542,455L662.067,455L661.591,455L661.591,455L661.115,455L659.688,455L659.212,455L658.736,455L658.261,455L657.785,455L655.862,455L655.386,455L654.911,455L654.435,455L653.959,455L652.532,455L652.056,455L651.580,455L651.105,455L650.629,455L649.202,455L648.726,455L648.250,455L647.774,455L647.299,455L646.347,455L645.871,455L645.396,455L644.920,455L644.444,455L643.017,455L642.065,455L641.590,455L641.114,455L640.638,455L639.211,455L638.735,455L638.259,455L637.784,455L637.308,455L635.881,455L635.405,455L634.929,455L634.453,455L633.978,455L632.550,455L632.550,455L632.075,455L631.599,455L631.123,455L629.696,455L629.220,455L628.744,455L627.793,455L627.317,455L625.890,455L625.414,455L624.938,455L624.463,455L623.987,455L622.560,455L622.084,455L621.608,455L621.132,455L620.657,455L619.229,455L618.754,455L618.278,455L617.802,455L617.802,455L616.375,455L615.899,455L615.423,455L614.948,455L614.472,455L612.569,455L612.093,455L611.617,455L611.142,455L610.666,455L609.239,455L608.763,455L608.287,455L607.811,455L607.336,455L605.908,455L605.433,455L604.957,455L604.481,455L604.005,455L603.054,455L602.578,455L602.102,455L601.627,455L601.151,455L599.724,455L599.248,455L598.296,455L597.821,455L597.345,455L595.918,455L595.442,455L594.966,455L594.490,455L594.015,455L592.587,455L592.112,455L591.636,455L591.160,455L590.684,455L589.257,455L588.781,455L588.781,455L588.306,455L587.830,455L586.403,455L585.927,455L585.451,455L584.975,455L584.024,455L582.597,455L582.121,455L581.645,455L581.169,455L580.694,455L579.266,455L578.791,455L578.315,455L577.839,455L577.363,455L575.936,455L575.460,455L574.985,455L574.509,455L574.033,455L573.082,455L572.606,455L572.130,455L571.654,455L571.179,455L569.276,455L568.800,455L568.324,455L567.849,455L567.373,455L565.946,455L565.470,455L564.994,455L564.518,455L564.043,455L562.615,455L562.140,455L561.664,455L561.188,455L560.712,455L559.761,455L559.285,455L558.809,455L558.334,455L557.858,455L556.431,455L555.955,455L555.003,455L554.528,455L554.072,455L552.644,455L552.169,455L551.693,455L551.217,455L550.741,455L549.314,455L548.838,455L548.363,455L547.887,455L547.411,455L545.984,455L545.508,455L545.032,455L545.032,455L544.557,455L543.129,455L542.654,455L542.178,455L541.702,455L541.226,455L539.323,455L538.848,455L538.372,455L537.896,455L537.420,455L535.993,455L535.517,455L535.042,455L534.566,455L534.090,455L532.663,455L532.187,455L531.711,455L531.711,455L531.236,455L529.808,455L529.333,455L528.857,455L528.381,455L527.905,455L526.002,455L525.527,455L525.051,455L524.575,455L524.099,455L522.672,455L522.196,455L521.721,455L521.245,455L520.769,455L519.342,455L518.866,455L518.390,455L517.915,455L517.439,455L516.487,455L516.012,455L515.536,455L515.060,455L514.584,455L513.157,455L512.206,455L511.730,455L511.254,455L510.778,455L509.351,455L508.875,455L508.400,455L507.924,455L507.448,455L506.021,455L505.545,455L505.069,455L504.594,455L504.118,455L502.691,455L502.215,455L502.215,455L501.739,455L501.263,455L499.836,455L499.360,455L498.885,455L498.409,455L497.457,455L496.030,455L495.554,455L495.079,455L494.603,455L494.127,455L492.700,455L492.224,455L491.748,455L491.273,455L490.797,455L489.370,455L488.894,455L488.418,455L487.942,455L487.942,455L486.515,455L486.039,455L485.564,455L485.088,455L484.612,455L482.709,455L482.233,455L481.758,455L481.282,455L480.786,455L479.359,455L478.883,455L478.408,455L477.932,455L477.456,455L476.029,455L475.553,455L475.077,455L474.602,455L474.126,455L473.174,455L472.699,455L472.223,455L471.747,455L471.271,455L469.844,455L469.368,455L468.417,455L467.941,455L467.465,455L466.038,455L465.562,455L465.087,455L464.611,455L464.135,455L462.708,455L462.232,455L461.756,455L461.281,455L460.805,455L459.378,455L458.902,455L458.902,455L458.426,455L456.523,455L456.047,455L455.572,455L455.096,455L454.144,455L452.717,455L452.241,455L451.766,455L451.290,455L450.814,455L449.387,455L448.911,455L448.435,455L447.960,455L447.484,455L446.057,455L445.581,455L445.105,455L444.154,455L443.202,455L442.726,455L442.251,455L441.775,455L441.299,455L439.396,455L438.920,455L438.445,455L437.969,455L437.493,455L436.066,455L435.590,455L435.114,455L434.639,455L434.163,455L432.736,455L432.260,455L431.784,455L431.308,455L430.833,455L429.405,455L429.405,455L428.930,455L428.454,455L427.978,455L426.551,455L426.075,455L425.599,455L424.648,455L424.172,455L422.745,455L422.269,455L421.793,455L421.318,455L420.842,455L419.415,455L418.939,455L418.463,455L417.987,455L417.512,455L416.084,455L415.609,455L415.133,455L415.133,455L414.657,455L413.230,455L412.754,455L412.278,455L411.803,455L411.327,455L409.424,455L408.948,455L408.472,455L407.997,455L406.094,455L405.618,455L405.142,455L404.666,455L404.191,455L402.763,455L402.288,455L401.812,455L401.336,455L400.860,455L399.909,455L399.433,455L398.957,455L398.482,455L398.006,455L396.579,455L395.627,455L395.151,455L394.676,455L394.200,455L392.773,455L392.297,455L391.821,455L391.346,455L390.870,455L389.443,455L388.967,455L388.491,455L388.015,455L387.540,455L386.112,455L386.112,455L385.637,455L385.161,455L384.685,455L383.258,455L382.782,455L382.306,455L381.355,455L380.899,455L379.472,455L378.996,455L378.520,455L378.044,455L377.569,455L376.141,455L375.666,455L375.190,455L374.714,455L374.238,455L372.811,455L372.335,455L371.860,455L371.384,455L371.384,455L369.957,455L369.481,455L369.005,455L368.529,455L368.054,455L366.151,455L365.675,455L365.199,455L364.723,455L364.248,455L362.820,455L362.345,455L361.869,455L361.393,455L359.490,455L359.014,455L358.539,455L358.063,455L358.063,455L356.636,455L356.160,455L355.684,455L355.208,455L354.733,455L352.830,455L352.354,455L351.878,455L351.402,455L350.927,455L349.499,455L349.024,455L348.548,455L348.072,455L346.169,455L345.693,455L345.218,455L344.742,455L344.266,455L343.315,455L342.839,455L342.363,455L341.887,455L341.412,455L339.984,455L339.509,455L338.557,455L338.081,455L337.606,455L336.178,455L335.703,455L335.227,455L334.751,455L334.275,455L332.848,455L332.372,455L331.897,455L331.421,455L330.945,455L329.518,455L329.042,455L328.566,455L328.566,455L328.091,455L326.663,455L326.188,455L325.712,455L325.236,455L324.760,455L322.857,455L322.382,455L321.906,455L321.430,455L320.954,455L319.527,455L319.051,455L318.576,455L318.100,455L317.624,455L316.197,455L315.721,455L315.245,455L314.770,455L314.294,455L313.342,455L312.867,455L312.391,455L311.915,455L311.439,455L309.536,455L309.061,455L308.585,455L308.109,455L307.614,455L306.186,455L305.711,455L305.235,455L304.759,455L304.283,455L302.856,455L302.380,455L301.905,455L301.429,455L300.953,455L299.526,455L299.526,455L299.050,455L298.574,455L298.099,455L296.671,455L296.196,455L295.720,455L294.768,455L294.293,455L292.865,455L292.390,455L291.914,455L291.438,455L290.962,455L289.535,455L289.059,455L288.584,455L288.108,455L287.632,455L286.205,455L285.729,455L285.253,455L285.253,455L284.778,455L283.350,455L282.875,455L282.399,455L281.923,455L279.544,455L279.069,455L278.593,455L278.117,455L277.641,455L276.214,455L275.738,455L275.263,455L274.787,455L274.311,455L272.884,455L272.408,455L271.932,455L271.457,455L270.981,455L270.029,455L269.554,455L269.078,455L268.602,455L268.126,455L266.699,455L265.748,455L265.272,455L264.796,455L264.320,455L262.893,455L262.417,455L261.942,455L261.466,455L260.990,455L259.563,455L259.087,455L258.611,455L258.136,455L257.660,455L256.233,455L255.757,455L255.757,455L255.281,455L254.805,455L252.902,455L252.427,455L251.951,455L250.999,455L249.572,455L249.096,455L248.621,455L248.145,455L247.669,455L246.242,455L245.766,455L245.290,455L244.815,455L244.339,455L242.912,455L242.436,455L241.960,455L241.484,455L241.484,455L240.057,455L239.581,455L239.106,455L238.630,455L238.154,455L236.251,455L235.775,455L235.300,455L234.824,455L232.921,455L232.445,455L231.969,455L231.494,455L231.018,455L229.591,455L229.115,455L228.639,455L228.163,455L227.688,455L226.736,455L226.260,455L225.785,455L225.309,455L224.833,455L223.406,455L222.930,455L221.979,455L221.503,455L221.027,455L219.600,455L219.124,455L218.649,455L218.173,455L217.697,455L216.270,455L215.794,455L215.318,455L214.843,455L214.367,455L212.940,455L212.464,455L212.464,455L211.988,455L211.512,455L210.085,455L209.609,455L209.134,455L208.658,455L207.726,455L206.299,455L205.823,455L205.347,455L204.872,455L204.396,455L202.493,455L202.017,455L201.541,455L201.066,455L199.638,455L199.163,455L198.687,455L198.211,455L197.735,455L196.784,455L196.308,455L195.832,455L195.357,455L194.881,455L192.978,455L192.502,455L192.026,455L191.551,455L191.075,455L189.648,455L189.172,455L188.696,455L188.220,455L186.317,455L185.842,455L185.366,455L184.890,455L184.414,455L183.463,455L182.987,455L182.511,455L182.036,455L181.560,455L180.133,455L179.181,455L178.705,455L178.230,455L177.754,455L176.327,455L175.851,455L175.375,455L174.899,455L172.996,455L172.521,455L172.045,455L171.569,455L171.093,455L169.666,455L169.190,455L169.190,455L168.715,455L168.239,455L166.812,455L166.336,455L165.860,455L164.433,455L163.006,455L162.530,455L162.054,455L161.103,455L159.675,455L159.200,455L158.724,455L158.248,455L157.772,455L156.345,455L155.869,455L155.394,455L154.918,455L154.442,455L153.491,455L153.015,455L152.539,455L152.063,455L151.588,455L149.685,455L149.209,455L148.733,455L148.257,455L147.782,455L146.354,455L145.403,455L144.927,455L144.451,455L143.024,455L142.548,455L142.073,455L141.597,455L141.121,455L140.170,455L139.694,455L139.218,455L138.742,455L138.267,455L136.839,455L136.364,455L135.412,455L134.936,455L134.441,455L133.014,455L132.538,455L132.062,455L131.586,455L131.111,455L129.683,455L129.208,455L128.732,455L128.256,455L127.780,455L126.353,455L125.877,455L125.402,455L125.402,455L124.926,455L123.499,455L123.023,455L122.547,455L122.071,455L121.596,455L119.693,455L119.217,455L118.741,455L118.265,455L117.790,455L116.362,455L115.887,455L115.411,455L114.935,455L114.459,455L113.032,455L112.556,455L112.081,455L111.605,455L111.129,455L110.178,455L109.702,455L109.226,455L108.750,455L106.372,455L105.896,455L105.420,455L104.944,455L104.469,455L103.041,455L102.566,455L102.090,455L101.614,455L101.138,455L99.711,455L99.235,455L98.760,455L98.284,455L97.808,455L96.381,455L96.381,455L95.905,455L95.429,455L94.954,455L93.526,455L93.051,455L92.575,455L91.623,455L91.148,455L89.720,455L89.245,455L88.769,455L88.293,455L87.817,455L86.390,455L85.914,455L85.439,455L84.963,455L84.487,455L83.060,455L82.584,455L82.108,455L81.633,455L81.633,455L80.205,455L79.730,455L78.778,455L78.302,455L76.399,455L75.924,455L75.448,455L74.972,455L74.496,455L73.069,455L72.593,455L72.118,455L71.642,455L71.166,455L69.739,455L69.263,455L68.787,455L68.312,455L67.836,455L66.884,455L66.409,455L65.933,455L65.457,455L64.981,455L63.554,455L62.603,455L62.127,455L61.651,455L59.748,455L59.272,455L58.797,455L58.321,455L57.845,455L56.418,455L55.942,455L55.466,455L54.991,455L54.515,455L53.088,455L52.612,455L52.612,455L52.136,455L51.660,455L50.233,455L49.757,455L49.282,455L48.806,455L47.854,455L46.427,455L45.951,455L45.476,455L45,455Z"/></g><g aria-label="x-axis tick" stroke="currentColor" fill="#e6edf3"><path transform="translate(77.8267029972752, 455)" d="M0,0L0,6"/><path transform="translate(121.59564032697548, 455)" d="M0,0L0,6"/><path transform="translate(165.38440054495914, 455)" d="M0,0L0,6"/><path transform="translate(208.65776566757492, 455)" d="M0,0L0,6"/><path transform="translate(251.9509536784741, 455)" d="M0,0L0,6"/><path transform="translate(295.7198910081744, 455)" d="M0,0L0,6"/><path transform="translate(339.50865122615807, 455)" d="M0,0L0,6"/><path transform="translate(382.30626702997273, 455)" d="M0,0L0,6"/><path transform="translate(425.59945504087193, 455)" d="M0,0L0,6"/><path transform="translate(469.3683923705722, 455)" d="M0,0L0,6"/><path transform="translate(513.1571525885558, 455)" d="M0,0L0,6"/><path transform="translate(555.9547683923705, 455)" d="M0,0L0,6"/><path transform="translate(599.2479564032698, 455)" d="M0,0L0,6"/><path transform="translate(643.0168937329701, 455)" d="M0,0L0,6"/><path transform="translate(686.8056539509537, 455)" d="M0,0L0,6"/><path transform="translate(729.6032697547685, 455)" d="M0,0L0,6"/><path transform="translate(772.8964577656676, 455)" d="M0,0L0,6"/><path transform="translate(816.6653950953678, 455)" d="M0,0L0,6"/><path transform="translate(860.4541553133515, 455)" d="M0,0L0,6"/><path transform="translate(903.7275204359672, 455)" d="M0,0L0,6"/></g><g aria-label="x-axis tick label" transform="translate(0, 8.5)" text-anchor="middle" fill="#e6edf3"><text y="0.71em" transform="translate(77.8267029972752, 455)">July</text><text y="0.71em" transform="translate(121.59564032697548, 455)">October</text><text y="0.71em" transform="translate(165.38440054495914, 455)">2008</text><text y="0.71em" transform="translate(208.65776566757492, 455)">April</text><text y="0.71em" transform="translate(251.9509536784741, 455)">July</text><text y="0.71em" transform="translate(295.7198910081744, 455)">October</text><text y="0.71em" transform="translate(339.50865122615807, 455)">2009</text><text y="0.71em" transform="translate(382.30626702997273, 455)">April</text><text y="0.71em" transform="translate(425.59945504087193, 455)">July</text><text y="0.71em" transform="translate(469.3683923705722, 455)">October</text><text y="0.71em" transform="translate(513.1571525885558, 455)">2010</text><text y="0.71em" transform="translate(555.9547683923705, 455)">April</text><text y="0.71em" transform="translate(599.2479564032698, 455)">July</text><text y="0.71em" transform="translate(643.0168937329701, 455)">October</text><text y="0.71em" transform="translate(686.8056539509537, 455)">2011</text><text y="0.71em" transform="translate(729.6032697547685, 455)">April</text><text y="0.71em" transform="translate(772.8964577656676, 455)">July</text><text y="0.71em" transform="translate(816.6653950953678, 455)">October</text><text y="0.71em" transform="translate(860.4541553133515, 455)">2012</text><text y="0.71em" transform="translate(903.7275204359672, 455)">April</text></g><g aria-label="x-axis label" text-anchor="middle" fill="#e6edf3" transform="translate(0.5, 0)"><text transform="translate(481, 489)">date</text></g><g aria-label="y-axis tick" stroke="currentColor" fill="#e6edf3"><path transform="translate(45, 455.0)" d="M0,0L-6,0"/><path transform="translate(45, 420.7692307692308)" d="M0,0L-6,0"/><path transform="translate(45, 386.53846153846155)" d="M0,0L-6,0"/><path transform="translate(45, 352.30769230769226)" d="M0,0L-6,0"/><path transform="translate(45, 318.0769230769231)" d="M0,0L-6,0"/><path transform="translate(45, 283.84615384615387)" d="M0,0L-6,0"/><path transform="translate(45, 249.6153846153846)" d="M0,0L-6,0"/><path transform="translate(45, 215.3846153846154)" d="M0,0L-6,0"/><path transform="translate(45, 181.15384615384613)" d="M0,0L-6,0"/><path transform="translate(45, 146.92307692307693)" d="M0,0L-6,0"/><path transform="translate(45, 112.69230769230768)" d="M0,0L-6,0"/><path transform="translate(45, 78.46153846153847)" d="M0,0L-6,0"/><path transform="translate(45, 44.23076923076921)" d="M0,0L-6,0"/><path transform="translate(45, 10.0)" d="M0,0L-6,0"/></g><g aria-label="y-axis tick label" transform="translate(-8.5, 0)" text-anchor="end" fill="#e6edf3"><text y="0.32em" transform="translate(45, 455.0)">0</text><text y="0.32em" transform="translate(45, 420.7692307692308)">50</text><text y="0.32em" transform="translate(45, 386.53846153846155)">100</text><text y="0.32em" transform="translate(45, 352.30769230769226)">150</text><text y="0.32em" transform="translate(45, 318.0769230769231)">200</text><text y="0.32em" transform="translate(45, 283.84615384615387)">250</text><text y="0.32em" transform="translate(45, 249.6153846153846)">300</text><text y="0.32em" transform="translate(45, 215.3846153846154)">350</text><text y="0.32em" transform="translate(45, 181.15384615384613)">400</text><text y="0.32em" transform="translate(45, 146.92307692307693)">450</text><text y="0.32em" transform="translate(45, 112.69230769230768)">500</text><text y="0.32em" transform="translate(45, 78.46153846153847)">550</text><text y="0.32em" transform="translate(45, 44.23076923076921)">600</text><text y="0.32em" transform="translate(45, 10.0)">650</text></g><g aria-label="y-axis label" text-anchor="middle" fill="#e6edf3" transform="matrix(0 -1 1 0 0.5 0)"><text transform="translate(-233, 11)">close</text></g><g aria-label="x-grid" stroke="currentColor" stroke_width="1" stroke-opacity="0.1"><line x1="77.8267029972752" x2="77.8267029972752" y1="10" y2="455"/><line x1="121.59564032697548" x2="121.59564032697548" y1="10" y2="455"/><line x1="165.38440054495914" x2="165.38440054495914" y1="10" y2="455"/><line x1="208.65776566757492" x2="208.65776566757492" y1="10" y2="455"/><line x1="251.9509536784741" x2="251.9509536784741" y1="10" y2="455"/><line x1="295.7198910081744" x2="295.7198910081744" y1="10" y2="455"/><line x1="339.50865122615807" x2="339.50865122615807" y1="10" y2="455"/><line x1="382.30626702997273" x2="382.30626702997273" y1="10" y2="455"/><line x1="425.59945504087193" x2="425.59945504087193" y1="10" y2="455"/><line x1="469.3683923705722" x2="469.3683923705722" y1="10" y2="455"/><line x1="513.1571525885558" x2="513.1571525885558" y1="10" y2="455"/><line x1="555.9547683923705" x2="555.9547683923705" y1="10" y2="455"/><line x1="599.2479564032698" x2="599.2479564032698" y1="10" y2="455"/><line x1="643.0168937329701" x2="643.0168937329701" y1="10" y2="455"/><line x1="686.8056539509537" x2="686.8056539509537" y1="10" y2="455"/><line x1="729.6032697547685" x2="729.6032697547685" y1="10" y2="455"/><line x1="772.8964577656676" x2="772.8964577656676" y1="10" y2="455"/><line x1="816.6653950953678" x2="816.6653950953678" y1="10" y2="455"/><line x1="860.4541553133515" x2="860.4541553133515" y1="10" y2="455"/><line x1="903.7275204359672" x2="903.7275204359672" y1="10" y2="455"/></g></svg>
