<svg xmlns="http://www.w3.org/2000/svg" width="640" height="502" viewBox="0 0 640 502" style="font-size:12px;font-family:sans-serif;color:white;"><g class="legend"><g class="legend" transform="translate(15, 21)"><g transform="translate(0, 0)"><rect x="-7.5" y="-7.5" width="15" height="15" fill="#1f77b4" style="stroke:none;"/><text x="11.5" y="4" style="fill:currentColor;font-size:12;">setosa</text></g><g transform="translate(66.0, 0)"><rect x="-7.5" y="-7.5" width="15" height="15" fill="#ff7f0e" style="stroke:none;"/><text x="11.5" y="4" style="fill:currentColor;font-size:12;">versicolor</text></g><g transform="translate(150.0, 0)"><rect x="-7.5" y="-7.5" width="15" height="15" fill="#2ca02c" style="stroke:none;"/><text x="11.5" y="4" style="fill:currentColor;font-size:12;">virginica</text></g></g></g><g class="canvas" transform="translate(0, 50)"><g class="dots"><circle cx="174.99999999999994" cy="158.87500000000006" stroke="#1f77b4" fill="none" stroke-width="1.5" r="3"/><circle cx="142.50000000000009" cy="241.58333333333334" stroke="#1f77b4" fill="none" stroke-width="1.5" r="3"/><circle cx="110.00000000000004" cy="208.5" stroke="#1f77b4" fill="none" stroke-width="1.5" r="3"/><circle cx="93.74999999999997" cy="225.0416666666667" stroke="#1f77b4" fill="none" stroke-width="1.5" r="3"/><circle cx="158.75" cy="142.33333333333334" stroke="#1f77b4" fill="none" stroke-width="1.5" r="3"/><circle cx="223.75000000000006" cy="92.7083333333334" stroke="#1f77b4" fill="none" stroke-width="1.5" r="3"/><circle cx="93.74999999999997" cy="175.4166666666667" stroke="#1f77b4" fill="none" stroke-width="1.5" r="3"/><circle cx="158.75" cy="175.4166666666667" stroke="#1f77b4" fill="none" stroke-width="1.5" r="3"/><circle cx="61.250000000000085" cy="258.12500000000006" stroke="#1f77b4" fill="none" stroke-width="1.5" r="3"/><circle cx="142.50000000000009" cy="225.0416666666667" stroke="#1f77b4" fill="none" stroke-width="1.5" r="3"/><circle cx="223.75000000000006" cy="125.79166666666669" stroke="#1f77b4" fill="none" stroke-width="1.5" r="3"/><circle cx="126.24999999999999" cy="175.4166666666667" stroke="#1f77b4" fill="none" stroke-width="1.5" r="3"/><circle cx="126.24999999999999" cy="241.58333333333334" stroke="#1f77b4" fill="none" stroke-width="1.5" r="3"/><circle cx="45.0" cy="241.58333333333334" stroke="#1f77b4" fill="none" stroke-width="1.5" r="3"/><circle cx="288.75" cy="76.16666666666669" stroke="#1f77b4" fill="none" stroke-width="1.5" r="3"/><circle cx="272.5" cy="10.0" stroke="#1f77b4" fill="none" stroke-width="1.5" r="3"/><circle cx="223.75000000000006" cy="92.7083333333334" stroke="#1f77b4" fill="none" stroke-width="1.5" r="3"/><circle cx="174.99999999999994" cy="158.87500000000006" stroke="#1f77b4" fill="none" stroke-width="1.5" r="3"/><circle cx="272.5" cy="109.25000000000009" stroke="#1f77b4" fill="none" stroke-width="1.5" r="3"/><circle cx="174.99999999999994" cy="109.25000000000009" stroke="#1f77b4" fill="none" stroke-width="1.5" r="3"/><circle cx="223.75000000000006" cy="175.4166666666667" stroke="#1f77b4" fill="none" stroke-width="1.5" r="3"/><circle cx="174.99999999999994" cy="125.79166666666669" stroke="#1f77b4" fill="none" stroke-width="1.5" r="3"/><circle cx="93.74999999999997" cy="142.33333333333334" stroke="#1f77b4" fill="none" stroke-width="1.5" r="3"/><circle cx="174.99999999999994" cy="191.95833333333337" stroke="#1f77b4" fill="none" stroke-width="1.5" r="3"/><circle cx="126.24999999999999" cy="175.4166666666667" stroke="#1f77b4" fill="none" stroke-width="1.5" r="3"/><circle cx="158.75" cy="241.58333333333334" stroke="#1f77b4" fill="none" stroke-width="1.5" r="3"/><circle cx="158.75" cy="175.4166666666667" stroke="#1f77b4" fill="none" stroke-width="1.5" r="3"/><circle cx="191.25000000000003" cy="158.87500000000006" stroke="#1f77b4" fill="none" stroke-width="1.5" r="3"/><circle cx="191.25000000000003" cy="175.4166666666667" stroke="#1f77b4" fill="none" stroke-width="1.5" r="3"/><circle cx="110.00000000000004" cy="208.5" stroke="#1f77b4" fill="none" stroke-width="1.5" r="3"/><circle cx="126.24999999999999" cy="225.0416666666667" stroke="#1f77b4" fill="none" stroke-width="1.5" r="3"/><circle cx="223.75000000000006" cy="175.4166666666667" stroke="#1f77b4" fill="none" stroke-width="1.5" r="3"/><circle cx="191.25000000000003" cy="59.62500000000009" stroke="#1f77b4" fill="none" stroke-width="1.5" r="3"/><circle cx="240.0" cy="43.08333333333334" stroke="#1f77b4" fill="none" stroke-width="1.5" r="3"/><circle cx="142.50000000000009" cy="225.0416666666667" stroke="#1f77b4" fill="none" stroke-width="1.5" r="3"/><circle cx="158.75" cy="208.5" stroke="#1f77b4" fill="none" stroke-width="1.5" r="3"/><circle cx="240.0" cy="158.87500000000006" stroke="#1f77b4" fill="none" stroke-width="1.5" r="3"/><circle cx="142.50000000000009" cy="142.33333333333334" stroke="#1f77b4" fill="none" stroke-width="1.5" r="3"/><circle cx="61.250000000000085" cy="241.58333333333334" stroke="#1f77b4" fill="none" stroke-width="1.5" r="3"/><circle cx="174.99999999999994" cy="175.4166666666667" stroke="#1f77b4" fill="none" stroke-width="1.5" r="3"/><circle cx="158.75" cy="158.87500000000006" stroke="#1f77b4" fill="none" stroke-width="1.5" r="3"/><circle cx="77.50000000000003" cy="357.37500000000006" stroke="#1f77b4" fill="none" stroke-width="1.5" r="3"/><circle cx="61.250000000000085" cy="208.5" stroke="#1f77b4" fill="none" stroke-width="1.5" r="3"/><circle cx="158.75" cy="158.87500000000006" stroke="#1f77b4" fill="none" stroke-width="1.5" r="3"/><circle cx="174.99999999999994" cy="109.25000000000009" stroke="#1f77b4" fill="none" stroke-width="1.5" r="3"/><circle cx="126.24999999999999" cy="241.58333333333334" stroke="#1f77b4" fill="none" stroke-width="1.5" r="3"/><circle cx="174.99999999999994" cy="109.25000000000009" stroke="#1f77b4" fill="none" stroke-width="1.5" r="3"/><circle cx="93.74999999999997" cy="208.5" stroke="#1f77b4" fill="none" stroke-width="1.5" r="3"/><circle cx="207.49999999999997" cy="125.79166666666669" stroke="#1f77b4" fill="none" stroke-width="1.5" r="3"/><circle cx="158.75" cy="191.95833333333337" stroke="#1f77b4" fill="none" stroke-width="1.5" r="3"/><circle cx="483.74999999999994" cy="208.5" stroke="#ff7f0e" fill="none" stroke-width="1.5" r="3"/><circle cx="386.25" cy="208.5" stroke="#ff7f0e" fill="none" stroke-width="1.5" r="3"/><circle cx="467.5" cy="225.0416666666667" stroke="#ff7f0e" fill="none" stroke-width="1.5" r="3"/><circle cx="240.0" cy="357.37500000000006" stroke="#ff7f0e" fill="none" stroke-width="1.5" r="3"/><circle cx="402.49999999999994" cy="274.6666666666667" stroke="#ff7f0e" fill="none" stroke-width="1.5" r="3"/><circle cx="272.5" cy="274.6666666666667" stroke="#ff7f0e" fill="none" stroke-width="1.5" r="3"/><circle cx="369.99999999999994" cy="191.95833333333337" stroke="#ff7f0e" fill="none" stroke-width="1.5" r="3"/><circle cx="142.50000000000009" cy="340.83333333333337" stroke="#ff7f0e" fill="none" stroke-width="1.5" r="3"/><circle cx="418.7499999999999" cy="258.12500000000006" stroke="#ff7f0e" fill="none" stroke-width="1.5" r="3"/><circle cx="191.25000000000003" cy="291.2083333333333" stroke="#ff7f0e" fill="none" stroke-width="1.5" r="3"/><circle cx="158.75" cy="407.0" stroke="#ff7f0e" fill="none" stroke-width="1.5" r="3"/><circle cx="305.00000000000006" cy="241.58333333333334" stroke="#ff7f0e" fill="none" stroke-width="1.5" r="3"/><circle cx="321.25" cy="373.91666666666663" stroke="#ff7f0e" fill="none" stroke-width="1.5" r="3"/><circle cx="337.49999999999994" cy="258.12500000000006" stroke="#ff7f0e" fill="none" stroke-width="1.5" r="3"/><circle cx="256.24999999999994" cy="258.12500000000006" stroke="#ff7f0e" fill="none" stroke-width="1.5" r="3"/><circle cx="435.0" cy="225.0416666666667" stroke="#ff7f0e" fill="none" stroke-width="1.5" r="3"/><circle cx="256.24999999999994" cy="241.58333333333334" stroke="#ff7f0e" fill="none" stroke-width="1.5" r="3"/><circle cx="288.75" cy="291.2083333333333" stroke="#ff7f0e" fill="none" stroke-width="1.5" r="3"/><circle cx="353.75" cy="373.91666666666663" stroke="#ff7f0e" fill="none" stroke-width="1.5" r="3"/><circle cx="256.24999999999994" cy="324.2916666666667" stroke="#ff7f0e" fill="none" stroke-width="1.5" r="3"/><circle cx="305.00000000000006" cy="208.5" stroke="#ff7f0e" fill="none" stroke-width="1.5" r="3"/><circle cx="337.49999999999994" cy="274.6666666666667" stroke="#ff7f0e" fill="none" stroke-width="1.5" r="3"/><circle cx="369.99999999999994" cy="324.2916666666667" stroke="#ff7f0e" fill="none" stroke-width="1.5" r="3"/><circle cx="337.49999999999994" cy="274.6666666666667" stroke="#ff7f0e" fill="none" stroke-width="1.5" r="3"/><circle cx="386.25" cy="258.12500000000006" stroke="#ff7f0e" fill="none" stroke-width="1.5" r="3"/><circle cx="418.7499999999999" cy="241.58333333333334" stroke="#ff7f0e" fill="none" stroke-width="1.5" r="3"/><circle cx="451.2499999999999" cy="274.6666666666667" stroke="#ff7f0e" fill="none" stroke-width="1.5" r="3"/><circle cx="435.0" cy="241.58333333333334" stroke="#ff7f0e" fill="none" stroke-width="1.5" r="3"/><circle cx="321.25" cy="258.12500000000006" stroke="#ff7f0e" fill="none" stroke-width="1.5" r="3"/><circle cx="272.5" cy="307.75" stroke="#ff7f0e" fill="none" stroke-width="1.5" r="3"/><circle cx="240.0" cy="340.83333333333337" stroke="#ff7f0e" fill="none" stroke-width="1.5" r="3"/><circle cx="240.0" cy="340.83333333333337" stroke="#ff7f0e" fill="none" stroke-width="1.5" r="3"/><circle cx="288.75" cy="291.2083333333333" stroke="#ff7f0e" fill="none" stroke-width="1.5" r="3"/><circle cx="321.25" cy="291.2083333333333" stroke="#ff7f0e" fill="none" stroke-width="1.5" r="3"/><circle cx="223.75000000000006" cy="241.58333333333334" stroke="#ff7f0e" fill="none" stroke-width="1.5" r="3"/><circle cx="321.25" cy="175.4166666666667" stroke="#ff7f0e" fill="none" stroke-width="1.5" r="3"/><circle cx="435.0" cy="225.0416666666667" stroke="#ff7f0e" fill="none" stroke-width="1.5" r="3"/><circle cx="369.99999999999994" cy="357.37500000000006" stroke="#ff7f0e" fill="none" stroke-width="1.5" r="3"/><circle cx="256.24999999999994" cy="241.58333333333334" stroke="#ff7f0e" fill="none" stroke-width="1.5" r="3"/><circle cx="240.0" cy="324.2916666666667" stroke="#ff7f0e" fill="none" stroke-width="1.5" r="3"/><circle cx="240.0" cy="307.75" stroke="#ff7f0e" fill="none" stroke-width="1.5" r="3"/><circle cx="337.49999999999994" cy="241.58333333333334" stroke="#ff7f0e" fill="none" stroke-width="1.5" r="3"/><circle cx="288.75" cy="307.75" stroke="#ff7f0e" fill="none" stroke-width="1.5" r="3"/><circle cx="158.75" cy="357.37500000000006" stroke="#ff7f0e" fill="none" stroke-width="1.5" r="3"/><circle cx="256.24999999999994" cy="291.2083333333333" stroke="#ff7f0e" fill="none" stroke-width="1.5" r="3"/><circle cx="272.5" cy="241.58333333333334" stroke="#ff7f0e" fill="none" stroke-width="1.5" r="3"/><circle cx="272.5" cy="258.12500000000006" stroke="#ff7f0e" fill="none" stroke-width="1.5" r="3"/><circle cx="353.75" cy="258.12500000000006" stroke="#ff7f0e" fill="none" stroke-width="1.5" r="3"/><circle cx="174.99999999999994" cy="324.2916666666667" stroke="#ff7f0e" fill="none" stroke-width="1.5" r="3"/><circle cx="272.5" cy="274.6666666666667" stroke="#ff7f0e" fill="none" stroke-width="1.5" r="3"/><circle cx="369.99999999999994" cy="191.95833333333337" stroke="#2ca02c" fill="none" stroke-width="1.5" r="3"/><circle cx="288.75" cy="291.2083333333333" stroke="#2ca02c" fill="none" stroke-width="1.5" r="3"/><circle cx="499.9999999999999" cy="241.58333333333334" stroke="#2ca02c" fill="none" stroke-width="1.5" r="3"/><circle cx="369.99999999999994" cy="258.12500000000006" stroke="#2ca02c" fill="none" stroke-width="1.5" r="3"/><circle cx="402.49999999999994" cy="241.58333333333334" stroke="#2ca02c" fill="none" stroke-width="1.5" r="3"/><circle cx="581.2499999999999" cy="241.58333333333334" stroke="#2ca02c" fill="none" stroke-width="1.5" r="3"/><circle cx="142.50000000000009" cy="324.2916666666667" stroke="#2ca02c" fill="none" stroke-width="1.5" r="3"/><circle cx="532.5" cy="258.12500000000006" stroke="#2ca02c" fill="none" stroke-width="1.5" r="3"/><circle cx="435.0" cy="324.2916666666667" stroke="#2ca02c" fill="none" stroke-width="1.5" r="3"/><circle cx="516.25" cy="142.33333333333334" stroke="#2ca02c" fill="none" stroke-width="1.5" r="3"/><circle cx="402.49999999999994" cy="208.5" stroke="#2ca02c" fill="none" stroke-width="1.5" r="3"/><circle cx="386.25" cy="291.2083333333333" stroke="#2ca02c" fill="none" stroke-width="1.5" r="3"/><circle cx="451.2499999999999" cy="241.58333333333334" stroke="#2ca02c" fill="none" stroke-width="1.5" r="3"/><circle cx="272.5" cy="324.2916666666667" stroke="#2ca02c" fill="none" stroke-width="1.5" r="3"/><circle cx="288.75" cy="274.6666666666667" stroke="#2ca02c" fill="none" stroke-width="1.5" r="3"/><circle cx="386.25" cy="208.5" stroke="#2ca02c" fill="none" stroke-width="1.5" r="3"/><circle cx="402.49999999999994" cy="241.58333333333334" stroke="#2ca02c" fill="none" stroke-width="1.5" r="3"/><circle cx="597.5" cy="109.25000000000009" stroke="#2ca02c" fill="none" stroke-width="1.5" r="3"/><circle cx="597.5" cy="307.75" stroke="#2ca02c" fill="none" stroke-width="1.5" r="3"/><circle cx="321.25" cy="373.91666666666663" stroke="#2ca02c" fill="none" stroke-width="1.5" r="3"/><circle cx="467.5" cy="208.5" stroke="#2ca02c" fill="none" stroke-width="1.5" r="3"/><circle cx="256.24999999999994" cy="274.6666666666667" stroke="#2ca02c" fill="none" stroke-width="1.5" r="3"/><circle cx="597.5" cy="274.6666666666667" stroke="#2ca02c" fill="none" stroke-width="1.5" r="3"/><circle cx="369.99999999999994" cy="291.2083333333333" stroke="#2ca02c" fill="none" stroke-width="1.5" r="3"/><circle cx="435.0" cy="191.95833333333337" stroke="#2ca02c" fill="none" stroke-width="1.5" r="3"/><circle cx="516.25" cy="208.5" stroke="#2ca02c" fill="none" stroke-width="1.5" r="3"/><circle cx="353.75" cy="274.6666666666667" stroke="#2ca02c" fill="none" stroke-width="1.5" r="3"/><circle cx="337.49999999999994" cy="241.58333333333334" stroke="#2ca02c" fill="none" stroke-width="1.5" r="3"/><circle cx="386.25" cy="274.6666666666667" stroke="#2ca02c" fill="none" stroke-width="1.5" r="3"/><circle cx="516.25" cy="241.58333333333334" stroke="#2ca02c" fill="none" stroke-width="1.5" r="3"/><circle cx="548.75" cy="274.6666666666667" stroke="#2ca02c" fill="none" stroke-width="1.5" r="3"/><circle cx="630.0" cy="109.25000000000009" stroke="#2ca02c" fill="none" stroke-width="1.5" r="3"/><circle cx="386.25" cy="274.6666666666667" stroke="#2ca02c" fill="none" stroke-width="1.5" r="3"/><circle cx="369.99999999999994" cy="274.6666666666667" stroke="#2ca02c" fill="none" stroke-width="1.5" r="3"/><circle cx="337.49999999999994" cy="307.75" stroke="#2ca02c" fill="none" stroke-width="1.5" r="3"/><circle cx="597.5" cy="241.58333333333334" stroke="#2ca02c" fill="none" stroke-width="1.5" r="3"/><circle cx="369.99999999999994" cy="175.4166666666667" stroke="#2ca02c" fill="none" stroke-width="1.5" r="3"/><circle cx="386.25" cy="225.0416666666667" stroke="#2ca02c" fill="none" stroke-width="1.5" r="3"/><circle cx="321.25" cy="241.58333333333334" stroke="#2ca02c" fill="none" stroke-width="1.5" r="3"/><circle cx="467.5" cy="225.0416666666667" stroke="#2ca02c" fill="none" stroke-width="1.5" r="3"/><circle cx="435.0" cy="225.0416666666667" stroke="#2ca02c" fill="none" stroke-width="1.5" r="3"/><circle cx="467.5" cy="225.0416666666667" stroke="#2ca02c" fill="none" stroke-width="1.5" r="3"/><circle cx="288.75" cy="291.2083333333333" stroke="#2ca02c" fill="none" stroke-width="1.5" r="3"/><circle cx="451.2499999999999" cy="208.5" stroke="#2ca02c" fill="none" stroke-width="1.5" r="3"/><circle cx="435.0" cy="191.95833333333337" stroke="#2ca02c" fill="none" stroke-width="1.5" r="3"/><circle cx="435.0" cy="241.58333333333334" stroke="#2ca02c" fill="none" stroke-width="1.5" r="3"/><circle cx="369.99999999999994" cy="324.2916666666667" stroke="#2ca02c" fill="none" stroke-width="1.5" r="3"/><circle cx="402.49999999999994" cy="241.58333333333334" stroke="#2ca02c" fill="none" stroke-width="1.5" r="3"/><circle cx="353.75" cy="175.4166666666667" stroke="#2ca02c" fill="none" stroke-width="1.5" r="3"/><circle cx="305.00000000000006" cy="241.58333333333334" stroke="#2ca02c" fill="none" stroke-width="1.5" r="3"/></g><g aria-label="x-axis tick" stroke="currentColor" fill="white"><path transform="translate(77.50000000000003, 407)" d="M0,0L0,6"/><path transform="translate(158.75, 407)" d="M0,0L0,6"/><path transform="translate(240.0, 407)" d="M0,0L0,6"/><path transform="translate(321.25, 407)" d="M0,0L0,6"/><path transform="translate(402.49999999999994, 407)" d="M0,0L0,6"/><path transform="translate(483.74999999999994, 407)" d="M0,0L0,6"/><path transform="translate(565.0, 407)" d="M0,0L0,6"/></g><g aria-label="x-axis tick label" transform="translate(0, 8.5)" text-anchor="middle" fill="white"><text y="0.71em" transform="translate(77.50000000000003, 407)">4.5</text><text y="0.71em" transform="translate(158.75, 407)">5.0</text><text y="0.71em" transform="translate(240.0, 407)">5.5</text><text y="0.71em" transform="translate(321.25, 407)">6.0</text><text y="0.71em" transform="translate(402.49999999999994, 407)">6.5</text><text y="0.71em" transform="translate(483.74999999999994, 407)">7.0</text><text y="0.71em" transform="translate(565.0, 407)">7.5</text></g><g aria-label="x-axis label" text-anchor="middle" fill="white" transform="translate(0.5, 0)"><text transform="translate(337, 441)">sepal length (cm)</text></g><g aria-label="y-axis tick" stroke="currentColor" fill="white"><path transform="translate(45, 407.0)" d="M0,0L-6,0"/><path transform="translate(45, 373.91666666666663)" d="M0,0L-6,0"/><path transform="translate(45, 340.83333333333337)" d="M0,0L-6,0"/><path transform="translate(45, 307.75)" d="M0,0L-6,0"/><path transform="translate(45, 274.6666666666667)" d="M0,0L-6,0"/><path transform="translate(45, 241.58333333333334)" d="M0,0L-6,0"/><path transform="translate(45, 208.5)" d="M0,0L-6,0"/><path transform="translate(45, 175.4166666666667)" d="M0,0L-6,0"/><path transform="translate(45, 142.33333333333334)" d="M0,0L-6,0"/><path transform="translate(45, 109.25000000000009)" d="M0,0L-6,0"/><path transform="translate(45, 76.16666666666669)" d="M0,0L-6,0"/><path transform="translate(45, 43.08333333333334)" d="M0,0L-6,0"/><path transform="translate(45, 10.0)" d="M0,0L-6,0"/></g><g aria-label="y-axis tick label" transform="translate(-8.5, 0)" text-anchor="end" fill="white"><text y="0.32em" transform="translate(45, 407.0)">2.0</text><text y="0.32em" transform="translate(45, 373.91666666666663)">2.2</text><text y="0.32em" transform="translate(45, 340.83333333333337)">2.4</text><text y="0.32em" transform="translate(45, 307.75)">2.6</text><text y="0.32em" transform="translate(45, 274.6666666666667)">2.8</text><text y="0.32em" transform="translate(45, 241.58333333333334)">3.0</text><text y="0.32em" transform="translate(45, 208.5)">3.2</text><text y="0.32em" transform="translate(45, 175.4166666666667)">3.4</text><text y="0.32em" transform="translate(45, 142.33333333333334)">3.6</text><text y="0.32em" transform="translate(45, 109.25000000000009)">3.8</text><text y="0.32em" transform="translate(45, 76.16666666666669)">4.0</text><text y="0.32em" transform="translate(45, 43.08333333333334)">4.2</text><text y="0.32em" transform="translate(45, 10.0)">4.4</text></g><g aria-label="y-axis label" text-anchor="middle" fill="white" transform="matrix(0 -1 1 0 0.5 0)"><text transform="translate(-209, 11)">sepal width (cm)</text></g></g></svg>