<svg xmlns="http://www.w3.org/2000/svg" width="928" height="500" viewBox="0 0 928 500" style="font-size:20px;font-family:sans-serif;color:steelblue;"><g class="canvas"><g class="line"><path fill="none" stroke="white" stroke-width="1.0" d="M80,227.451L88.465,264.673L96.929,231.327L105.394,222.814L113.859,168.362L122.323,161.068L130.788,131.678L139.253,186.187L147.717,148.053L156.182,169.960L164.646,145.064L173.111,112.908L181.576,144.113L190.040,122.947L198.505,79.888L206.970,83.199L215.434,105.416L223.899,71.957L232.364,51.658L240.828,116.002L249.293,50.425L257.758,60.013L266.222,91.079L274.687,109.015L283.152,47.323L291.616,102.856L300.081,128.541L308.545,134.880L317.010,81.049L325.475,109.322L333.939,101.813L342.404,117.963L350.869,144.248L359.333,119.591L367.798,179.747L376.263,177.564L384.727,167.252L393.192,197.129L401.657,190.097L410.121,226.302L418.586,228.909L427.051,295.710L435.515,293.666L443.980,301.271L452.444,330.745L460.909,330.220L469.374,352.531L477.838,349.094L486.303,330.302L494.768,362.233L503.232,370.880L511.697,392.327L520.162,395.124L528.626,347.016L537.091,376.320L545.556,384.268L554.020,423.857L562.485,381.042L570.949,429.051L579.414,412.135L587.879,361.982L596.343,389.224L604.808,393.663L613.273,379.870L621.737,362.591L630.202,362.748L638.667,401.217L647.131,410.192L655.596,379.070L664.061,374.213L672.525,369.360L680.990,299.369L689.455,294.027L697.919,328.609L706.384,288.961L714.848,298L723.313,243.073L731.778,267.561L740.242,270.497L748.707,258.993L757.172,220.277L765.636,231.777L774.101,192.734L782.566,154.642L791.030,183.214L799.495,186.173L807.960,111.287L816.424,140.442L824.889,164.543L833.354,158.691L841.818,144.890L850.283,94.677L858.747,74.175L867.212,98.253L875.677,122.339L884.141,92.079L892.606,38.584L901.071,74.492L909.535,37.134L918,45.946"/></g><g aria-label="x-axis tick" stroke="currentColor" fill="steelblue"><path transform="translate(80.0, 435)" d="M0,0L0,6"/><path transform="translate(186.3698845942726, 435)" d="M0,0L0,6"/><path transform="translate(292.7397691885452, 435)" d="M0,0L0,6"/><path transform="translate(399.1096537828178, 435)" d="M0,0L0,6"/><path transform="translate(505.47953837709036, 435)" d="M0,0L0,6"/><path transform="translate(611.849422971363, 435)" d="M0,0L0,6"/><path transform="translate(718.2193075656356, 435)" d="M0,0L0,6"/><path transform="translate(824.5891921599082, 435)" d="M0,0L0,6"/></g><g aria-label="x-axis tick label" transform="translate(0, 8.5)" text-anchor="middle" fill="steelblue"><text y="0.71em" transform="translate(80.0, 435)">0</text><text y="0.71em" transform="translate(186.3698845942726, 435)">1</text><text y="0.71em" transform="translate(292.7397691885452, 435)">2</text><text y="0.71em" transform="translate(399.1096537828178, 435)">3</text><text y="0.71em" transform="translate(505.47953837709036, 435)">4</text><text y="0.71em" transform="translate(611.849422971363, 435)">5</text><text y="0.71em" transform="translate(718.2193075656356, 435)">6</text><text y="0.71em" transform="translate(824.5891921599082, 435)">7</text></g><g aria-label="x-axis label" text-anchor="middle" fill="steelblue" transform="translate(0.5, 0)"><text transform="translate(499, 484)">x_values</text></g><g aria-label="y-axis tick" stroke="currentColor" fill="steelblue"><path transform="translate(80, 435.0)" d="M0,0L-6,0"/><path transform="translate(80, 402.3076923076923)" d="M0,0L-6,0"/><path transform="translate(80, 369.61538461538464)" d="M0,0L-6,0"/><path transform="translate(80, 336.9230769230769)" d="M0,0L-6,0"/><path transform="translate(80, 304.2307692307692)" d="M0,0L-6,0"/><path transform="translate(80, 271.53846153846155)" d="M0,0L-6,0"/><path transform="translate(80, 238.84615384615384)" d="M0,0L-6,0"/><path transform="translate(80, 206.15384615384613)" d="M0,0L-6,0"/><path transform="translate(80, 173.4615384615384)" d="M0,0L-6,0"/><path transform="translate(80, 140.76923076923077)" d="M0,0L-6,0"/><path transform="translate(80, 108.07692307692301)" d="M0,0L-6,0"/><path transform="translate(80, 75.3846153846153)" d="M0,0L-6,0"/><path transform="translate(80, 42.69230769230767)" d="M0,0L-6,0"/><path transform="translate(80, 10.0)" d="M0,0L-6,0"/></g><g aria-label="y-axis tick label" transform="translate(-8.5, 0)" text-anchor="end" fill="steelblue"><text y="0.32em" transform="translate(80, 435.0)">-1.2</text><text y="0.32em" transform="translate(80, 402.3076923076923)">-1.0</text><text y="0.32em" transform="translate(80, 369.61538461538464)">-0.8</text><text y="0.32em" transform="translate(80, 336.9230769230769)">-0.6</text><text y="0.32em" transform="translate(80, 304.2307692307692)">-0.4</text><text y="0.32em" transform="translate(80, 271.53846153846155)">-0.2</text><text y="0.32em" transform="translate(80, 238.84615384615384)">0.0</text><text y="0.32em" transform="translate(80, 206.15384615384613)">0.2</text><text y="0.32em" transform="translate(80, 173.4615384615384)">0.4</text><text y="0.32em" transform="translate(80, 140.76923076923077)">0.6</text><text y="0.32em" transform="translate(80, 108.07692307692301)">0.8</text><text y="0.32em" transform="translate(80, 75.3846153846153)">1.0</text><text y="0.32em" transform="translate(80, 42.69230769230767)">1.2</text><text y="0.32em" transform="translate(80, 10.0)">1.4</text></g><g aria-label="y-axis label" text-anchor="middle" fill="steelblue" transform="matrix(0 -1 1 0 0.5 0)"><text transform="translate(-223, 20)">y_values</text></g></g></svg>