<svg xmlns="http://www.w3.org/2000/svg" width="928" height="500" viewBox="0 0 928 500" style="font-size:12px;font-family:sans-serif;color:white;"><g class="canvas"><g class="line"><path fill="none" stroke="white" stroke-width="1.0" d="M45,237.684L53.818,276.658L62.636,241.743L71.455,232.829L80.273,175.814L89.091,168.177L97.909,137.404L106.727,194.479L115.545,154.549L124.364,177.488L133.182,151.420L142,117.750L150.818,150.425L159.636,128.262L168.455,83.177L177.273,86.644L186.091,109.907L194.909,74.873L203.727,53.618L212.545,120.990L221.364,52.327L230.182,62.366L239,94.895L247.818,113.674L256.636,49.079L265.455,107.226L274.273,134.119L283.091,140.757L291.909,84.392L300.727,113.996L309.545,106.134L318.364,123.043L327.182,150.566L336,124.749L344.818,187.735L353.636,185.449L362.455,174.653L371.273,205.935L380.091,198.572L388.909,236.481L397.727,239.211L406.545,309.156L415.364,307.015L424.182,314.977L433,345.839L441.818,345.290L450.636,368.651L459.455,365.051L468.273,345.375L477.091,378.809L485.909,387.862L494.727,410.319L503.545,413.247L512.364,362.875L521.182,393.558L530,401.880L538.818,443.332L547.636,398.503L556.455,448.771L565.273,431.059L574.091,378.546L582.909,407.070L591.727,411.717L600.545,397.276L609.364,379.184L618.182,379.348L627,419.627L635.818,429.025L644.636,396.438L653.455,391.353L662.273,386.271L671.091,312.987L679.909,307.393L688.727,343.602L697.545,302.088L706.364,311.553L715.182,254.041L724,279.681L732.818,282.756L741.636,270.710L750.455,230.172L759.273,242.214L768.091,201.333L776.909,161.448L785.727,191.366L794.545,194.463L803.364,116.054L812.182,146.580L821,171.815L829.818,165.688L838.636,151.238L847.455,98.662L856.273,77.195L865.091,102.406L873.909,127.626L882.727,95.942L891.545,39.929L900.364,77.527L909.182,38.411L918,47.637"/></g><g aria-label="x-axis tick" stroke="currentColor" fill="white"><path transform="translate(45.0, 455)" d="M0,0L0,6"/><path transform="translate(155.81254087207634, 455)" d="M0,0L0,6"/><path transform="translate(266.6250817441527, 455)" d="M0,0L0,6"/><path transform="translate(377.4376226162291, 455)" d="M0,0L0,6"/><path transform="translate(488.25016348830536, 455)" d="M0,0L0,6"/><path transform="translate(599.0627043603816, 455)" d="M0,0L0,6"/><path transform="translate(709.8752452324582, 455)" d="M0,0L0,6"/><path transform="translate(820.6877861045344, 455)" d="M0,0L0,6"/></g><g aria-label="x-axis tick label" transform="translate(0, 8.5)" text-anchor="middle" fill="white"><text y="0.71em" transform="translate(45.0, 455)">0</text><text y="0.71em" transform="translate(155.81254087207634, 455)">1</text><text y="0.71em" transform="translate(266.6250817441527, 455)">2</text><text y="0.71em" transform="translate(377.4376226162291, 455)">3</text><text y="0.71em" transform="translate(488.25016348830536, 455)">4</text><text y="0.71em" transform="translate(599.0627043603816, 455)">5</text><text y="0.71em" transform="translate(709.8752452324582, 455)">6</text><text y="0.71em" transform="translate(820.6877861045344, 455)">7</text></g><g aria-label="x-axis label" text-anchor="middle" fill="white" transform="translate(0.5, 0)"><text transform="translate(481, 489)">x_values</text></g><g aria-label="y-axis tick" stroke="currentColor" fill="white"><path transform="translate(45, 455.0)" d="M0,0L-6,0"/><path transform="translate(45, 420.7692307692308)" d="M0,0L-6,0"/><path transform="translate(45, 386.53846153846155)" d="M0,0L-6,0"/><path transform="translate(45, 352.30769230769226)" d="M0,0L-6,0"/><path transform="translate(45, 318.0769230769231)" d="M0,0L-6,0"/><path transform="translate(45, 283.8461538461538)" d="M0,0L-6,0"/><path transform="translate(45, 249.6153846153846)" d="M0,0L-6,0"/><path transform="translate(45, 215.38461538461536)" d="M0,0L-6,0"/><path transform="translate(45, 181.1538461538461)" d="M0,0L-6,0"/><path transform="translate(45, 146.92307692307693)" d="M0,0L-6,0"/><path transform="translate(45, 112.69230769230762)" d="M0,0L-6,0"/><path transform="translate(45, 78.46153846153837)" d="M0,0L-6,0"/><path transform="translate(45, 44.23076923076921)" d="M0,0L-6,0"/><path transform="translate(45, 10.0)" d="M0,0L-6,0"/></g><g aria-label="y-axis tick label" transform="translate(-8.5, 0)" text-anchor="end" fill="white"><text y="0.32em" transform="translate(45, 455.0)">-1.2</text><text y="0.32em" transform="translate(45, 420.7692307692308)">-1.0</text><text y="0.32em" transform="translate(45, 386.53846153846155)">-0.8</text><text y="0.32em" transform="translate(45, 352.30769230769226)">-0.6</text><text y="0.32em" transform="translate(45, 318.0769230769231)">-0.4</text><text y="0.32em" transform="translate(45, 283.8461538461538)">-0.2</text><text y="0.32em" transform="translate(45, 249.6153846153846)">0.0</text><text y="0.32em" transform="translate(45, 215.38461538461536)">0.2</text><text y="0.32em" transform="translate(45, 181.1538461538461)">0.4</text><text y="0.32em" transform="translate(45, 146.92307692307693)">0.6</text><text y="0.32em" transform="translate(45, 112.69230769230762)">0.8</text><text y="0.32em" transform="translate(45, 78.46153846153837)">1.0</text><text y="0.32em" transform="translate(45, 44.23076923076921)">1.2</text><text y="0.32em" transform="translate(45, 10.0)">1.4</text></g><g aria-label="y-axis label" text-anchor="middle" fill="white" transform="matrix(0 -1 1 0 0.5 0)"><text transform="translate(-233, 11)">y_values</text></g><g aria-label="x-grid" stroke="currentColor" stroke_width="1" stroke-opacity="0.1"><line x1="45.0" x2="45.0" y1="10" y2="455"/><line x1="155.81254087207634" x2="155.81254087207634" y1="10" y2="455"/><line x1="266.6250817441527" x2="266.6250817441527" y1="10" y2="455"/><line x1="377.4376226162291" x2="377.4376226162291" y1="10" y2="455"/><line x1="488.25016348830536" x2="488.25016348830536" y1="10" y2="455"/><line x1="599.0627043603816" x2="599.0627043603816" y1="10" y2="455"/><line x1="709.8752452324582" x2="709.8752452324582" y1="10" y2="455"/><line x1="820.6877861045344" x2="820.6877861045344" y1="10" y2="455"/></g><g aria-label="y-grid" stroke="currentColor" stroke_width="1" stroke-opacity="0.1"><line x1="45" x2="918" y1="455.0" y2="455.0"/><line x1="45" x2="918" y1="420.7692307692308" y2="420.7692307692308"/><line x1="45" x2="918" y1="386.53846153846155" y2="386.53846153846155"/><line x1="45" x2="918" y1="352.30769230769226" y2="352.30769230769226"/><line x1="45" x2="918" y1="318.0769230769231" y2="318.0769230769231"/><line x1="45" x2="918" y1="283.8461538461538" y2="283.8461538461538"/><line x1="45" x2="918" y1="249.6153846153846" y2="249.6153846153846"/><line x1="45" x2="918" y1="215.38461538461536" y2="215.38461538461536"/><line x1="45" x2="918" y1="181.1538461538461" y2="181.1538461538461"/><line x1="45" x2="918" y1="146.92307692307693" y2="146.92307692307693"/><line x1="45" x2="918" y1="112.69230769230762" y2="112.69230769230762"/><line x1="45" x2="918" y1="78.46153846153837" y2="78.46153846153837"/><line x1="45" x2="918" y1="44.23076923076921" y2="44.23076923076921"/><line x1="45" x2="918" y1="10.0" y2="10.0"/></g></g></svg>