<svg xmlns="http://www.w3.org/2000/svg" width="928" height="500" viewBox="0 0 928 500" style="font-size:12px;font-family:sans-serif;color:white;"><g class="canvas"><g class="line"><path fill="none" stroke="white" stroke-width="1.0" d="M45,237.684L53.684,276.658L62.368,241.743L71.052,232.829L79.736,175.814L88.419,168.177L97.103,137.404L105.787,194.479L114.471,154.549L123.155,177.488L131.839,151.420L140.523,117.750L149.207,150.425L157.891,128.262L166.574,83.177L175.258,86.644L183.942,109.907L192.626,74.873L201.310,53.618L209.994,120.990L218.678,52.327L227.362,62.366L236.046,94.895L244.730,113.674L253.413,49.079L262.097,107.226L270.781,134.119L279.465,140.757L288.149,84.392L296.833,113.996L305.517,106.134L314.201,123.043L322.885,150.566L331.568,124.749L340.252,187.735L348.936,185.449L357.620,174.653L366.304,205.935L374.988,198.572L383.672,236.481L392.356,239.211L401.040,309.156L409.723,307.015L418.407,314.977L427.091,345.839L435.775,345.290L444.459,368.651L453.143,365.051L461.827,345.375L470.511,378.809L479.195,387.862L487.878,410.319L496.562,413.247L505.246,362.875L513.930,393.558L522.614,401.880L531.298,443.332L539.982,398.503L548.666,448.771L557.350,431.059L566.033,378.546L574.717,407.070L583.401,411.717L592.085,397.276L600.769,379.184L609.453,379.348L618.137,419.627L626.821,429.025L635.505,396.438L644.189,391.353L652.872,386.271L661.556,312.987L670.240,307.393L678.924,343.602L687.608,302.088L696.292,311.553L704.976,254.041L713.660,279.681L722.344,282.756L731.027,270.710L739.711,230.172L748.395,242.214L757.079,201.333L765.763,161.448L774.447,191.366L783.131,194.463L791.815,116.054L800.499,146.580L809.182,171.815L817.866,165.688L826.550,151.238L835.234,98.662L843.918,77.195L852.602,102.406L861.286,127.626L869.970,95.942L878.654,39.929L887.337,77.527L896.021,38.411L904.705,47.637"/></g><g aria-label="x-axis tick" stroke="currentColor" fill="white"><path transform="translate(45.0, 455)" d="M0,0L0,6"/><path transform="translate(154.125, 455)" d="M0,0L0,6"/><path transform="translate(263.25, 455)" d="M0,0L0,6"/><path transform="translate(372.375, 455)" d="M0,0L0,6"/><path transform="translate(481.5, 455)" d="M0,0L0,6"/><path transform="translate(590.625, 455)" d="M0,0L0,6"/><path transform="translate(699.75, 455)" d="M0,0L0,6"/><path transform="translate(808.875, 455)" d="M0,0L0,6"/><path transform="translate(918.0, 455)" d="M0,0L0,6"/></g><g aria-label="x-axis tick label" transform="translate(0, 8.5)" text-anchor="middle" fill="white"><text y="0.71em" transform="translate(45.0, 455)">0</text><text y="0.71em" transform="translate(154.125, 455)">1</text><text y="0.71em" transform="translate(263.25, 455)">2</text><text y="0.71em" transform="translate(372.375, 455)">3</text><text y="0.71em" transform="translate(481.5, 455)">4</text><text y="0.71em" transform="translate(590.625, 455)">5</text><text y="0.71em" transform="translate(699.75, 455)">6</text><text y="0.71em" transform="translate(808.875, 455)">7</text><text y="0.71em" transform="translate(918.0, 455)">8</text></g><g aria-label="x-axis label" text-anchor="middle" fill="white" transform="translate(0.5, 0)"><text transform="translate(481, 489)">x_values</text></g><g aria-label="y-axis tick" stroke="currentColor" fill="white"><path transform="translate(45, 455.0)" d="M0,0L-6,0"/><path transform="translate(45, 420.7692307692308)" d="M0,0L-6,0"/><path transform="translate(45, 386.53846153846155)" d="M0,0L-6,0"/><path transform="translate(45, 352.30769230769226)" d="M0,0L-6,0"/><path transform="translate(45, 318.0769230769231)" d="M0,0L-6,0"/><path transform="translate(45, 283.8461538461538)" d="M0,0L-6,0"/><path transform="translate(45, 249.6153846153846)" d="M0,0L-6,0"/><path transform="translate(45, 215.38461538461536)" d="M0,0L-6,0"/><path transform="translate(45, 181.1538461538461)" d="M0,0L-6,0"/><path transform="translate(45, 146.92307692307693)" d="M0,0L-6,0"/><path transform="translate(45, 112.69230769230762)" d="M0,0L-6,0"/><path transform="translate(45, 78.46153846153837)" d="M0,0L-6,0"/><path transform="translate(45, 44.23076923076921)" d="M0,0L-6,0"/><path transform="translate(45, 10.0)" d="M0,0L-6,0"/></g><g aria-label="y-axis tick label" transform="translate(-8.5, 0)" text-anchor="end" fill="white"><text y="0.32em" transform="translate(45, 455.0)">-1.2</text><text y="0.32em" transform="translate(45, 420.7692307692308)">-1.0</text><text y="0.32em" transform="translate(45, 386.53846153846155)">-0.8</text><text y="0.32em" transform="translate(45, 352.30769230769226)">-0.6</text><text y="0.32em" transform="translate(45, 318.0769230769231)">-0.4</text><text y="0.32em" transform="translate(45, 283.8461538461538)">-0.2</text><text y="0.32em" transform="translate(45, 249.6153846153846)">0.0</text><text y="0.32em" transform="translate(45, 215.38461538461536)">0.2</text><text y="0.32em" transform="translate(45, 181.1538461538461)">0.4</text><text y="0.32em" transform="translate(45, 146.92307692307693)">0.6</text><text y="0.32em" transform="translate(45, 112.69230769230762)">0.8</text><text y="0.32em" transform="translate(45, 78.46153846153837)">1.0</text><text y="0.32em" transform="translate(45, 44.23076923076921)">1.2</text><text y="0.32em" transform="translate(45, 10.0)">1.4</text></g><g aria-label="y-axis label" text-anchor="middle" fill="white" transform="matrix(0 -1 1 0 0.5 0)"><text transform="translate(-233, 11)">y_values</text></g></g></svg>