<svg xmlns="http://www.w3.org/2000/svg" width="928" height="500" viewBox="0 0 928 500" style="font-size:12px;font-family:sans-serif;color:white;"><g class="canvas"><g class="line"><path fill="none" stroke="white" stroke-width="1.0" d="M45,237.684L53.818,276.658L62.636,241.743L71.455,232.829L80.273,175.814L89.091,168.177L97.909,137.404L106.727,194.479L115.545,154.549L124.364,177.488L133.182,151.420L142,117.750L150.818,150.425L159.636,128.262L168.455,83.177L177.273,86.644L186.091,109.907L194.909,74.873L203.727,53.618L212.545,120.990L221.364,52.327L230.182,62.366L239,94.895L247.818,113.674L256.636,49.079L265.455,107.226L274.273,134.119L283.091,140.757L291.909,84.392L300.727,113.996L309.545,106.134L318.364,123.043L327.182,150.566L336,124.749L344.818,187.735L353.636,185.449L362.455,174.653L371.273,205.935L380.091,198.572L388.909,236.481L397.727,239.211L406.545,309.156L415.364,307.015L424.182,314.977L433,345.839L441.818,345.290L450.636,368.651L459.455,365.051L468.273,345.375L477.091,378.809L485.909,387.862L494.727,410.319L503.545,413.247L512.364,362.875L521.182,393.558L530,401.880L538.818,443.332L547.636,398.503L556.455,448.771L565.273,431.059L574.091,378.546L582.909,407.070L591.727,411.717L600.545,397.276L609.364,379.184L618.182,379.348L627,419.627L635.818,429.025L644.636,396.438L653.455,391.353L662.273,386.271L671.091,312.987L679.909,307.393L688.727,343.602L697.545,302.088L706.364,311.553L715.182,254.041L724,279.681L732.818,282.756L741.636,270.710L750.455,230.172L759.273,242.214L768.091,201.333L776.909,161.448L785.727,191.366L794.545,194.463L803.364,116.054L812.182,146.580L821,171.815L829.818,165.688L838.636,151.238L847.455,98.662L856.273,77.195L865.091,102.406L873.909,127.626L882.727,95.942L891.545,39.929L900.364,77.527L909.182,38.411L918,47.637"/></g><g class="dots"><circle cx="45.0" cy="237.68366820889264" stroke="white" fill="white" stroke-width="1.5" r="3"/><circle cx="53.81818181818182" cy="276.6578827376581" stroke="white" fill="white" stroke-width="1.5" r="3"/><circle cx="62.63636363636364" cy="241.74255658831032" stroke="white" fill="white" stroke-width="1.5" r="3"/><circle cx="71.45454545454547" cy="232.82920568299852" stroke="white" fill="white" stroke-width="1.5" r="3"/><circle cx="80.27272727272728" cy="175.81429059078536" stroke="white" fill="white" stroke-width="1.5" r="3"/><circle cx="89.0909090909091" cy="168.17673115830638" stroke="white" fill="white" stroke-width="1.5" r="3"/><circle cx="97.9090909090909" cy="137.40370636116722" stroke="white" fill="white" stroke-width="1.5" r="3"/><circle cx="106.72727272727275" cy="194.47862342703624" stroke="white" fill="white" stroke-width="1.5" r="3"/><circle cx="115.54545454545456" cy="154.54940504864666" stroke="white" fill="white" stroke-width="1.5" r="3"/><circle cx="124.36363636363636" cy="177.4878014371574" stroke="white" fill="white" stroke-width="1.5" r="3"/><circle cx="133.1818181818182" cy="151.4201614330835" stroke="white" fill="white" stroke-width="1.5" r="3"/><circle cx="142.0" cy="117.75044307565483" stroke="white" fill="white" stroke-width="1.5" r="3"/><circle cx="150.8181818181818" cy="150.424697470403" stroke="white" fill="white" stroke-width="1.5" r="3"/><circle cx="159.63636363636363" cy="128.2622664378202" stroke="white" fill="white" stroke-width="1.5" r="3"/><circle cx="168.45454545454547" cy="83.1768795038487" stroke="white" fill="white" stroke-width="1.5" r="3"/><circle cx="177.27272727272728" cy="86.64362935902732" stroke="white" fill="white" stroke-width="1.5" r="3"/><circle cx="186.0909090909091" cy="109.90661310967295" stroke="white" fill="white" stroke-width="1.5" r="3"/><circle cx="194.9090909090909" cy="74.87256675559127" stroke="white" fill="white" stroke-width="1.5" r="3"/><circle cx="203.72727272727272" cy="53.61804897850355" stroke="white" fill="white" stroke-width="1.5" r="3"/><circle cx="212.5454545454545" cy="120.98989312100232" stroke="white" fill="white" stroke-width="1.5" r="3"/><circle cx="221.36363636363637" cy="52.327323788062344" stroke="white" fill="white" stroke-width="1.5" r="3"/><circle cx="230.1818181818182" cy="62.36609283515143" stroke="white" fill="white" stroke-width="1.5" r="3"/><circle cx="239.0" cy="94.89480497147214" stroke="white" fill="white" stroke-width="1.5" r="3"/><circle cx="247.8181818181818" cy="113.67441186548106" stroke="white" fill="white" stroke-width="1.5" r="3"/><circle cx="256.6363636363636" cy="49.07899829986522" stroke="white" fill="white" stroke-width="1.5" r="3"/><circle cx="265.4545454545455" cy="107.22569924690144" stroke="white" fill="white" stroke-width="1.5" r="3"/><circle cx="274.27272727272725" cy="134.11932163346967" stroke="white" fill="white" stroke-width="1.5" r="3"/><circle cx="283.09090909090907" cy="140.75692149917703" stroke="white" fill="white" stroke-width="1.5" r="3"/><circle cx="291.90909090909093" cy="84.3924607495751" stroke="white" fill="white" stroke-width="1.5" r="3"/><circle cx="300.72727272727275" cy="113.99573311727193" stroke="white" fill="white" stroke-width="1.5" r="3"/><circle cx="309.54545454545456" cy="106.13371000201484" stroke="white" fill="white" stroke-width="1.5" r="3"/><circle cx="318.3636363636364" cy="123.04335519473133" stroke="white" fill="white" stroke-width="1.5" r="3"/><circle cx="327.1818181818182" cy="150.5657708337995" stroke="white" fill="white" stroke-width="1.5" r="3"/><circle cx="336.00000000000006" cy="124.74851851030954" stroke="white" fill="white" stroke-width="1.5" r="3"/><circle cx="344.8181818181818" cy="187.7352693457783" stroke="white" fill="white" stroke-width="1.5" r="3"/><circle cx="353.6363636363636" cy="185.44888707364612" stroke="white" fill="white" stroke-width="1.5" r="3"/><circle cx="362.45454545454544" cy="174.65261325743103" stroke="white" fill="white" stroke-width="1.5" r="3"/><circle cx="371.2727272727273" cy="205.93522116101286" stroke="white" fill="white" stroke-width="1.5" r="3"/><circle cx="380.09090909090907" cy="198.5720066586073" stroke="white" fill="white" stroke-width="1.5" r="3"/><circle cx="388.9090909090909" cy="236.48135685720456" stroke="white" fill="white" stroke-width="1.5" r="3"/><circle cx="397.72727272727275" cy="239.21066394155798" stroke="white" fill="white" stroke-width="1.5" r="3"/><circle cx="406.5454545454546" cy="309.15567118040207" stroke="white" fill="white" stroke-width="1.5" r="3"/><circle cx="415.3636363636364" cy="307.0149285443303" stroke="white" fill="white" stroke-width="1.5" r="3"/><circle cx="424.1818181818182" cy="314.9774961454811" stroke="white" fill="white" stroke-width="1.5" r="3"/><circle cx="433.0" cy="345.83912476458204" stroke="white" fill="white" stroke-width="1.5" r="3"/><circle cx="441.81818181818187" cy="345.28957529845843" stroke="white" fill="white" stroke-width="1.5" r="3"/><circle cx="450.6363636363636" cy="368.65052387071995" stroke="white" fill="white" stroke-width="1.5" r="3"/><circle cx="459.45454545454544" cy="365.0513131089682" stroke="white" fill="white" stroke-width="1.5" r="3"/><circle cx="468.2727272727273" cy="345.3746799808163" stroke="white" fill="white" stroke-width="1.5" r="3"/><circle cx="477.0909090909091" cy="378.80896896313413" stroke="white" fill="white" stroke-width="1.5" r="3"/><circle cx="485.90909090909093" cy="387.86233715314546" stroke="white" fill="white" stroke-width="1.5" r="3"/><circle cx="494.7272727272727" cy="410.31873680441004" stroke="white" fill="white" stroke-width="1.5" r="3"/><circle cx="503.5454545454545" cy="413.24719446788515" stroke="white" fill="white" stroke-width="1.5" r="3"/><circle cx="512.3636363636364" cy="362.8754979858089" stroke="white" fill="white" stroke-width="1.5" r="3"/><circle cx="521.1818181818181" cy="393.5584642534482" stroke="white" fill="white" stroke-width="1.5" r="3"/><circle cx="530.0" cy="401.8803737227478" stroke="white" fill="white" stroke-width="1.5" r="3"/><circle cx="538.8181818181819" cy="443.3321744879237" stroke="white" fill="white" stroke-width="1.5" r="3"/><circle cx="547.6363636363637" cy="398.50307256036854" stroke="white" fill="white" stroke-width="1.5" r="3"/><circle cx="556.4545454545455" cy="448.7713766268906" stroke="white" fill="white" stroke-width="1.5" r="3"/><circle cx="565.2727272727273" cy="431.0593976846083" stroke="white" fill="white" stroke-width="1.5" r="3"/><circle cx="574.0909090909091" cy="378.54572063377157" stroke="white" fill="white" stroke-width="1.5" r="3"/><circle cx="582.909090909091" cy="407.0697578064319" stroke="white" fill="white" stroke-width="1.5" r="3"/><circle cx="591.7272727272729" cy="411.71741202831254" stroke="white" fill="white" stroke-width="1.5" r="3"/><circle cx="600.5454545454546" cy="397.2759381681175" stroke="white" fill="white" stroke-width="1.5" r="3"/><circle cx="609.3636363636364" cy="379.1835353686984" stroke="white" fill="white" stroke-width="1.5" r="3"/><circle cx="618.1818181818182" cy="379.3478465766329" stroke="white" fill="white" stroke-width="1.5" r="3"/><circle cx="627.0000000000001" cy="419.62702555629727" stroke="white" fill="white" stroke-width="1.5" r="3"/><circle cx="635.8181818181818" cy="429.0246522888424" stroke="white" fill="white" stroke-width="1.5" r="3"/><circle cx="644.6363636363636" cy="396.43753720803636" stroke="white" fill="white" stroke-width="1.5" r="3"/><circle cx="653.4545454545455" cy="391.3526298586606" stroke="white" fill="white" stroke-width="1.5" r="3"/><circle cx="662.2727272727273" cy="386.27055133333727" stroke="white" fill="white" stroke-width="1.5" r="3"/><circle cx="671.0909090909091" cy="312.98686532059185" stroke="white" fill="white" stroke-width="1.5" r="3"/><circle cx="679.9090909090909" cy="307.39270712971444" stroke="white" fill="white" stroke-width="1.5" r="3"/><circle cx="688.7272727272727" cy="343.6022214733231" stroke="white" fill="white" stroke-width="1.5" r="3"/><circle cx="697.5454545454546" cy="302.08830881911484" stroke="white" fill="white" stroke-width="1.5" r="3"/><circle cx="706.3636363636364" cy="311.552814507453" stroke="white" fill="white" stroke-width="1.5" r="3"/><circle cx="715.1818181818181" cy="254.0411618744543" stroke="white" fill="white" stroke-width="1.5" r="3"/><circle cx="724.0" cy="279.6812104719923" stroke="white" fill="white" stroke-width="1.5" r="3"/><circle cx="732.8181818181818" cy="282.7557137996723" stroke="white" fill="white" stroke-width="1.5" r="3"/><circle cx="741.6363636363639" cy="270.7103200157954" stroke="white" fill="white" stroke-width="1.5" r="3"/><circle cx="750.4545454545455" cy="230.17210644722613" stroke="white" fill="white" stroke-width="1.5" r="3"/><circle cx="759.2727272727273" cy="242.21378830066766" stroke="white" fill="white" stroke-width="1.5" r="3"/><circle cx="768.0909090909092" cy="201.33283322366876" stroke="white" fill="white" stroke-width="1.5" r="3"/><circle cx="776.909090909091" cy="161.4482571842569" stroke="white" fill="white" stroke-width="1.5" r="3"/><circle cx="785.7272727272727" cy="191.36553919346338" stroke="white" fill="white" stroke-width="1.5" r="3"/><circle cx="794.5454545454546" cy="194.46320340429884" stroke="white" fill="white" stroke-width="1.5" r="3"/><circle cx="803.3636363636364" cy="116.0538908218619" stroke="white" fill="white" stroke-width="1.5" r="3"/><circle cx="812.1818181818184" cy="146.58034548206172" stroke="white" fill="white" stroke-width="1.5" r="3"/><circle cx="821.0" cy="171.81521120403153" stroke="white" fill="white" stroke-width="1.5" r="3"/><circle cx="829.8181818181818" cy="165.68779931534277" stroke="white" fill="white" stroke-width="1.5" r="3"/><circle cx="838.6363636363637" cy="151.23784876483026" stroke="white" fill="white" stroke-width="1.5" r="3"/><circle cx="847.4545454545455" cy="98.66187504734971" stroke="white" fill="white" stroke-width="1.5" r="3"/><circle cx="856.2727272727273" cy="77.19494511142354" stroke="white" fill="white" stroke-width="1.5" r="3"/><circle cx="865.0909090909091" cy="102.40648053222914" stroke="white" fill="white" stroke-width="1.5" r="3"/><circle cx="873.9090909090909" cy="127.6259779288849" stroke="white" fill="white" stroke-width="1.5" r="3"/><circle cx="882.7272727272729" cy="95.9420398329849" stroke="white" fill="white" stroke-width="1.5" r="3"/><circle cx="891.5454545454546" cy="39.928955711706585" stroke="white" fill="white" stroke-width="1.5" r="3"/><circle cx="900.3636363636363" cy="77.52653202491173" stroke="white" fill="white" stroke-width="1.5" r="3"/><circle cx="909.1818181818182" cy="38.410582242891735" stroke="white" fill="white" stroke-width="1.5" r="3"/><circle cx="918.0" cy="47.63718697632575" stroke="white" fill="white" stroke-width="1.5" r="3"/></g><g class="rule"><path stroke="white" fill="none" stroke-width="1.5" d="M45,249.615L918,249.615"/></g><g aria-label="x-axis tick" stroke="currentColor" fill="white"><path transform="translate(45.0, 455)" d="M0,0L0,6"/><path transform="translate(155.81254087207634, 455)" d="M0,0L0,6"/><path transform="translate(266.6250817441527, 455)" d="M0,0L0,6"/><path transform="translate(377.4376226162291, 455)" d="M0,0L0,6"/><path transform="translate(488.25016348830536, 455)" d="M0,0L0,6"/><path transform="translate(599.0627043603816, 455)" d="M0,0L0,6"/><path transform="translate(709.8752452324582, 455)" d="M0,0L0,6"/><path transform="translate(820.6877861045344, 455)" d="M0,0L0,6"/></g><g aria-label="x-axis tick label" transform="translate(0, 8.5)" text-anchor="middle" fill="white"><text y="0.71em" transform="translate(45.0, 455)">0</text><text y="0.71em" transform="translate(155.81254087207634, 455)">1</text><text y="0.71em" transform="translate(266.6250817441527, 455)">2</text><text y="0.71em" transform="translate(377.4376226162291, 455)">3</text><text y="0.71em" transform="translate(488.25016348830536, 455)">4</text><text y="0.71em" transform="translate(599.0627043603816, 455)">5</text><text y="0.71em" transform="translate(709.8752452324582, 455)">6</text><text y="0.71em" transform="translate(820.6877861045344, 455)">7</text></g><g aria-label="x-axis label" text-anchor="middle" fill="white" transform="translate(0.5, 0)"><text transform="translate(481, 489)">x_values</text></g><g aria-label="y-axis tick" stroke="currentColor" fill="white"><path transform="translate(45, 455.0)" d="M0,0L-6,0"/><path transform="translate(45, 420.7692307692308)" d="M0,0L-6,0"/><path transform="translate(45, 386.53846153846155)" d="M0,0L-6,0"/><path transform="translate(45, 352.30769230769226)" d="M0,0L-6,0"/><path transform="translate(45, 318.0769230769231)" d="M0,0L-6,0"/><path transform="translate(45, 283.8461538461538)" d="M0,0L-6,0"/><path transform="translate(45, 249.6153846153846)" d="M0,0L-6,0"/><path transform="translate(45, 215.38461538461536)" d="M0,0L-6,0"/><path transform="translate(45, 181.1538461538461)" d="M0,0L-6,0"/><path transform="translate(45, 146.92307692307693)" d="M0,0L-6,0"/><path transform="translate(45, 112.69230769230762)" d="M0,0L-6,0"/><path transform="translate(45, 78.46153846153837)" d="M0,0L-6,0"/><path transform="translate(45, 44.23076923076921)" d="M0,0L-6,0"/><path transform="translate(45, 10.0)" d="M0,0L-6,0"/></g><g aria-label="y-axis tick label" transform="translate(-8.5, 0)" text-anchor="end" fill="white"><text y="0.32em" transform="translate(45, 455.0)">-1.2</text><text y="0.32em" transform="translate(45, 420.7692307692308)">-1.0</text><text y="0.32em" transform="translate(45, 386.53846153846155)">-0.8</text><text y="0.32em" transform="translate(45, 352.30769230769226)">-0.6</text><text y="0.32em" transform="translate(45, 318.0769230769231)">-0.4</text><text y="0.32em" transform="translate(45, 283.8461538461538)">-0.2</text><text y="0.32em" transform="translate(45, 249.6153846153846)">0.0</text><text y="0.32em" transform="translate(45, 215.38461538461536)">0.2</text><text y="0.32em" transform="translate(45, 181.1538461538461)">0.4</text><text y="0.32em" transform="translate(45, 146.92307692307693)">0.6</text><text y="0.32em" transform="translate(45, 112.69230769230762)">0.8</text><text y="0.32em" transform="translate(45, 78.46153846153837)">1.0</text><text y="0.32em" transform="translate(45, 44.23076923076921)">1.2</text><text y="0.32em" transform="translate(45, 10.0)">1.4</text></g><g aria-label="y-axis label" text-anchor="middle" fill="white" transform="matrix(0 -1 1 0 0.5 0)"><text transform="translate(-233, 11)">y_values</text></g></g></svg>