<svg xmlns="http://www.w3.org/2000/svg" width="640" height="452" viewBox="0 0 640 452" style="font-size:12px;font-family:sans-serif;color:white;"><g class="canvas"><g class="rule"><path stroke="#000004" fill="none" stroke-width="1.5" d="M45,407L630,407"/><path stroke="#160b39" fill="none" stroke-width="1.5" d="M45,367.300L630,367.300"/><path stroke="#420a68" fill="none" stroke-width="1.5" d="M45,327.600L630,327.600"/><path stroke="#6a176e" fill="none" stroke-width="1.5" d="M45,287.900L630,287.900"/><path stroke="#932667" fill="none" stroke-width="1.5" d="M45,248.200L630,248.200"/><path stroke="#bc3754" fill="none" stroke-width="1.5" d="M45,208.500L630,208.500"/><path stroke="#dd513a" fill="none" stroke-width="1.5" d="M45,168.800L630,168.800"/><path stroke="#f37819" fill="none" stroke-width="1.5" d="M45,129.100L630,129.100"/><path stroke="#fca50a" fill="none" stroke-width="1.5" d="M45,89.400L630,89.400"/><path stroke="#f6d746" fill="none" stroke-width="1.5" d="M45,49.700L630,49.700"/><path stroke="#fcffa4" fill="none" stroke-width="1.5" d="M45,10L630,10"/></g><g aria-label="x-axis tick" stroke="currentColor" fill="white"><path transform="translate(45.0, 407)" d="M0,0L0,6"/><path transform="translate(103.5, 407)" d="M0,0L0,6"/><path transform="translate(162.0, 407)" d="M0,0L0,6"/><path transform="translate(220.5, 407)" d="M0,0L0,6"/><path transform="translate(279.0, 407)" d="M0,0L0,6"/><path transform="translate(337.5, 407)" d="M0,0L0,6"/><path transform="translate(396.0, 407)" d="M0,0L0,6"/><path transform="translate(454.5, 407)" d="M0,0L0,6"/><path transform="translate(513.0, 407)" d="M0,0L0,6"/><path transform="translate(571.5, 407)" d="M0,0L0,6"/><path transform="translate(630.0, 407)" d="M0,0L0,6"/></g><g aria-label="x-axis tick label" transform="translate(0, 8.5)" text-anchor="middle" fill="white"><text y="0.71em" transform="translate(45.0, 407)">0.0</text><text y="0.71em" transform="translate(103.5, 407)">0.1</text><text y="0.71em" transform="translate(162.0, 407)">0.2</text><text y="0.71em" transform="translate(220.5, 407)">0.3</text><text y="0.71em" transform="translate(279.0, 407)">0.4</text><text y="0.71em" transform="translate(337.5, 407)">0.5</text><text y="0.71em" transform="translate(396.0, 407)">0.6</text><text y="0.71em" transform="translate(454.5, 407)">0.7</text><text y="0.71em" transform="translate(513.0, 407)">0.8</text><text y="0.71em" transform="translate(571.5, 407)">0.9</text><text y="0.71em" transform="translate(630.0, 407)">1.0</text></g><g aria-label="y-axis tick" stroke="currentColor" fill="white"><path transform="translate(45, 407.0)" d="M0,0L-6,0"/><path transform="translate(45, 367.3)" d="M0,0L-6,0"/><path transform="translate(45, 327.6)" d="M0,0L-6,0"/><path transform="translate(45, 287.9)" d="M0,0L-6,0"/><path transform="translate(45, 248.2)" d="M0,0L-6,0"/><path transform="translate(45, 208.5)" d="M0,0L-6,0"/><path transform="translate(45, 168.8)" d="M0,0L-6,0"/><path transform="translate(45, 129.10000000000002)" d="M0,0L-6,0"/><path transform="translate(45, 89.39999999999998)" d="M0,0L-6,0"/><path transform="translate(45, 49.69999999999999)" d="M0,0L-6,0"/><path transform="translate(45, 10.0)" d="M0,0L-6,0"/></g><g aria-label="y-axis tick label" transform="translate(-8.5, 0)" text-anchor="end" fill="white"><text y="0.32em" transform="translate(45, 407.0)">0.0</text><text y="0.32em" transform="translate(45, 367.3)">0.1</text><text y="0.32em" transform="translate(45, 327.6)">0.2</text><text y="0.32em" transform="translate(45, 287.9)">0.3</text><text y="0.32em" transform="translate(45, 248.2)">0.4</text><text y="0.32em" transform="translate(45, 208.5)">0.5</text><text y="0.32em" transform="translate(45, 168.8)">0.6</text><text y="0.32em" transform="translate(45, 129.10000000000002)">0.7</text><text y="0.32em" transform="translate(45, 89.39999999999998)">0.8</text><text y="0.32em" transform="translate(45, 49.69999999999999)">0.9</text><text y="0.32em" transform="translate(45, 10.0)">1.0</text></g></g></svg>