<svg xmlns="http://www.w3.org/2000/svg" width="640" height="452" viewBox="0 0 640 452" style="font-size:12px;font-family:sans-serif;color:white;"><g class="canvas"><g aria-label="y-axis tick" stroke="white" fill="white"><path transform="translate(580, 407.0)" d="M0,0L6,0"/><path transform="translate(580, 387.15)" d="M0,0L6,0"/><path transform="translate(580, 367.3)" d="M0,0L6,0"/><path transform="translate(580, 347.45)" d="M0,0L6,0"/><path transform="translate(580, 327.6)" d="M0,0L6,0"/><path transform="translate(580, 307.75)" d="M0,0L6,0"/><path transform="translate(580, 287.9)" d="M0,0L6,0"/><path transform="translate(580, 268.05)" d="M0,0L6,0"/><path transform="translate(580, 248.2)" d="M0,0L6,0"/><path transform="translate(580, 228.35000000000002)" d="M0,0L6,0"/><path transform="translate(580, 208.5)" d="M0,0L6,0"/><path transform="translate(580, 188.64999999999998)" d="M0,0L6,0"/><path transform="translate(580, 168.8)" d="M0,0L6,0"/><path transform="translate(580, 148.95)" d="M0,0L6,0"/><path transform="translate(580, 129.10000000000002)" d="M0,0L6,0"/><path transform="translate(580, 109.25)" d="M0,0L6,0"/><path transform="translate(580, 89.39999999999998)" d="M0,0L6,0"/><path transform="translate(580, 69.55000000000001)" d="M0,0L6,0"/><path transform="translate(580, 49.69999999999999)" d="M0,0L6,0"/><path transform="translate(580, 29.85000000000002)" d="M0,0L6,0"/><path transform="translate(580, 10.0)" d="M0,0L6,0"/></g><g aria-label="y-axis tick label" transform="translate(8.5, 0)" text-anchor="start" fill="white"><text y="0.32em" transform="translate(580, 407.0)">0</text><text y="0.32em" transform="translate(580, 387.15)">1</text><text y="0.32em" transform="translate(580, 367.3)">2</text><text y="0.32em" transform="translate(580, 347.45)">3</text><text y="0.32em" transform="translate(580, 327.6)">4</text><text y="0.32em" transform="translate(580, 307.75)">5</text><text y="0.32em" transform="translate(580, 287.9)">6</text><text y="0.32em" transform="translate(580, 268.05)">7</text><text y="0.32em" transform="translate(580, 248.2)">8</text><text y="0.32em" transform="translate(580, 228.35000000000002)">9</text><text y="0.32em" transform="translate(580, 208.5)">10</text><text y="0.32em" transform="translate(580, 188.64999999999998)">11</text><text y="0.32em" transform="translate(580, 168.8)">12</text><text y="0.32em" transform="translate(580, 148.95)">13</text><text y="0.32em" transform="translate(580, 129.10000000000002)">14</text><text y="0.32em" transform="translate(580, 109.25)">15</text><text y="0.32em" transform="translate(580, 89.39999999999998)">16</text><text y="0.32em" transform="translate(580, 69.55000000000001)">17</text><text y="0.32em" transform="translate(580, 49.69999999999999)">18</text><text y="0.32em" transform="translate(580, 29.85000000000002)">19</text><text y="0.32em" transform="translate(580, 10.0)">20</text></g><g aria-label="y-axis label" text-anchor="middle" fill="white" transform="matrix(0 -1 1 0 0.5 0)"><text transform="translate(-209, 625)">Axis Y</text></g></g></svg>
