<svg xmlns="http://www.w3.org/2000/svg" width="640" height="50" viewBox="0 0 640 50" style="font-size:12px;font-family:sans-serif;color:white;"><g class="canvas"><g aria-label="x-axis tick" stroke="white" fill="white"><path transform="translate(45.0, 40)" d="M0,0L0,-6"/><path transform="translate(74.25, 40)" d="M0,0L0,-6"/><path transform="translate(103.5, 40)" d="M0,0L0,-6"/><path transform="translate(132.75, 40)" d="M0,0L0,-6"/><path transform="translate(162.0, 40)" d="M0,0L0,-6"/><path transform="translate(191.25, 40)" d="M0,0L0,-6"/><path transform="translate(220.5, 40)" d="M0,0L0,-6"/><path transform="translate(249.75, 40)" d="M0,0L0,-6"/><path transform="translate(279.0, 40)" d="M0,0L0,-6"/><path transform="translate(308.25, 40)" d="M0,0L0,-6"/><path transform="translate(337.5, 40)" d="M0,0L0,-6"/><path transform="translate(366.75, 40)" d="M0,0L0,-6"/><path transform="translate(396.0, 40)" d="M0,0L0,-6"/><path transform="translate(425.25, 40)" d="M0,0L0,-6"/><path transform="translate(454.5, 40)" d="M0,0L0,-6"/><path transform="translate(483.75, 40)" d="M0,0L0,-6"/><path transform="translate(513.0, 40)" d="M0,0L0,-6"/><path transform="translate(542.25, 40)" d="M0,0L0,-6"/><path transform="translate(571.5, 40)" d="M0,0L0,-6"/><path transform="translate(600.75, 40)" d="M0,0L0,-6"/><path transform="translate(630.0, 40)" d="M0,0L0,-6"/></g><g aria-label="x-axis tick label" transform="translate(0, -8.5)" text-anchor="middle" fill="white"><text y="0px" transform="translate(45.0, 40)">0</text><text y="0px" transform="translate(74.25, 40)">1</text><text y="0px" transform="translate(103.5, 40)">2</text><text y="0px" transform="translate(132.75, 40)">3</text><text y="0px" transform="translate(162.0, 40)">4</text><text y="0px" transform="translate(191.25, 40)">5</text><text y="0px" transform="translate(220.5, 40)">6</text><text y="0px" transform="translate(249.75, 40)">7</text><text y="0px" transform="translate(279.0, 40)">8</text><text y="0px" transform="translate(308.25, 40)">9</text><text y="0px" transform="translate(337.5, 40)">10</text><text y="0px" transform="translate(366.75, 40)">11</text><text y="0px" transform="translate(396.0, 40)">12</text><text y="0px" transform="translate(425.25, 40)">13</text><text y="0px" transform="translate(454.5, 40)">14</text><text y="0px" transform="translate(483.75, 40)">15</text><text y="0px" transform="translate(513.0, 40)">16</text><text y="0px" transform="translate(542.25, 40)">17</text><text y="0px" transform="translate(571.5, 40)">18</text><text y="0px" transform="translate(600.75, 40)">19</text><text y="0px" transform="translate(630.0, 40)">20</text></g><g aria-label="x-axis label" text-anchor="middle" fill="white" transform="translate(0.5, 0)"><text transform="translate(337, 10)">Axis X</text></g></g></svg>
