<svg xmlns="http://www.w3.org/2000/svg" width="640" height="452" viewBox="0 0 640 452" style="font-size:12px;font-family:sans-serif;color:white;"><g class="canvas"><g aria-label="y-grid" stroke="#ffc105" stroke_width="1" stroke-opacity="1"><line x1="45" x2="630" y1="407.0" y2="407.0"/><line x1="45" x2="630" y1="327.6" y2="327.6"/><line x1="45" x2="630" y1="208.5" y2="208.5"/><line x1="45" x2="630" y1="10.0" y2="10.0"/></g><g aria-label="x-axis tick" stroke="currentColor" fill="white"><path transform="translate(45.0, 407)" d="M0,0L0,6"/><path transform="translate(103.5, 407)" d="M0,0L0,6"/><path transform="translate(162.0, 407)" d="M0,0L0,6"/><path transform="translate(220.5, 407)" d="M0,0L0,6"/><path transform="translate(279.0, 407)" d="M0,0L0,6"/><path transform="translate(337.5, 407)" d="M0,0L0,6"/><path transform="translate(396.0, 407)" d="M0,0L0,6"/><path transform="translate(454.5, 407)" d="M0,0L0,6"/><path transform="translate(513.0, 407)" d="M0,0L0,6"/><path transform="translate(571.5, 407)" d="M0,0L0,6"/><path transform="translate(630.0, 407)" d="M0,0L0,6"/></g><g aria-label="x-axis tick label" transform="translate(0, 8.5)" text-anchor="middle" fill="white"><text y="0.71em" transform="translate(45.0, 407)">0.0</text><text y="0.71em" transform="translate(103.5, 407)">0.1</text><text y="0.71em" transform="translate(162.0, 407)">0.2</text><text y="0.71em" transform="translate(220.5, 407)">0.3</text><text y="0.71em" transform="translate(279.0, 407)">0.4</text><text y="0.71em" transform="translate(337.5, 407)">0.5</text><text y="0.71em" transform="translate(396.0, 407)">0.6</text><text y="0.71em" transform="translate(454.5, 407)">0.7</text><text y="0.71em" transform="translate(513.0, 407)">0.8</text><text y="0.71em" transform="translate(571.5, 407)">0.9</text><text y="0.71em" transform="translate(630.0, 407)">1.0</text></g><g aria-label="y-axis tick" stroke="currentColor" fill="white"><path transform="translate(45, 407.0)" d="M0,0L-6,0"/><path transform="translate(45, 367.3)" d="M0,0L-6,0"/><path transform="translate(45, 327.6)" d="M0,0L-6,0"/><path transform="translate(45, 287.9)" d="M0,0L-6,0"/><path transform="translate(45, 248.2)" d="M0,0L-6,0"/><path transform="translate(45, 208.5)" d="M0,0L-6,0"/><path transform="translate(45, 168.8)" d="M0,0L-6,0"/><path transform="translate(45, 129.10000000000002)" d="M0,0L-6,0"/><path transform="translate(45, 89.39999999999998)" d="M0,0L-6,0"/><path transform="translate(45, 49.69999999999999)" d="M0,0L-6,0"/><path transform="translate(45, 10.0)" d="M0,0L-6,0"/></g><g aria-label="y-axis tick label" transform="translate(-8.5, 0)" text-anchor="end" fill="white"><text y="0.32em" transform="translate(45, 407.0)">0.0</text><text y="0.32em" transform="translate(45, 367.3)">0.1</text><text y="0.32em" transform="translate(45, 327.6)">0.2</text><text y="0.32em" transform="translate(45, 287.9)">0.3</text><text y="0.32em" transform="translate(45, 248.2)">0.4</text><text y="0.32em" transform="translate(45, 208.5)">0.5</text><text y="0.32em" transform="translate(45, 168.8)">0.6</text><text y="0.32em" transform="translate(45, 129.10000000000002)">0.7</text><text y="0.32em" transform="translate(45, 89.39999999999998)">0.8</text><text y="0.32em" transform="translate(45, 49.69999999999999)">0.9</text><text y="0.32em" transform="translate(45, 10.0)">1.0</text></g></g></svg>