<svg xmlns="http://www.w3.org/2000/svg" width="928" height="550" viewBox="0 0 928 550" style="font-size:12px;font-family:sans-serif;color:white;"><g class="legend"><g class="legend" transform="translate(15, 21)"><g transform="translate(0, 0)"><rect x="-7.5" y="-7.5" width="15" height="15" fill="#4269d0" style="stroke:none;"/><text x="11.5" y="4" style="fill:currentColor;font-size:12;">experimental</text></g><g transform="translate(99.0, 0)"><rect x="-7.5" y="-7.5" width="15" height="15" fill="#efb118" style="stroke:none;"/><text x="11.5" y="4" style="fill:currentColor;font-size:12;">theoritical</text></g></g></g><g class="canvas" transform="translate(0, 50)"><g class="line"><path fill="none" stroke="#4269d0" stroke-width="1.0" d="M45,237.684L53.818,276.658L62.636,241.743L71.455,232.829L80.273,175.814L89.091,168.177L97.909,137.404L106.727,194.479L115.545,154.549L124.364,177.488L133.182,151.420L142,117.750L150.818,150.425L159.636,128.262L168.455,83.177L177.273,86.644L186.091,109.907L194.909,74.873L203.727,53.618L212.545,120.990L221.364,52.327L230.182,62.366L239,94.895L247.818,113.674L256.636,49.079L265.455,107.226L274.273,134.119L283.091,140.757L291.909,84.392L300.727,113.996L309.545,106.134L318.364,123.043L327.182,150.566L336,124.749L344.818,187.735L353.636,185.449L362.455,174.653L371.273,205.935L380.091,198.572L388.909,236.481L397.727,239.211L406.545,309.156L415.364,307.015L424.182,314.977L433,345.839L441.818,345.290L450.636,368.651L459.455,365.051L468.273,345.375L477.091,378.809L485.909,387.862L494.727,410.319L503.545,413.247L512.364,362.875L521.182,393.558L530,401.880L538.818,443.332L547.636,398.503L556.455,448.771L565.273,431.059L574.091,378.546L582.909,407.070L591.727,411.717L600.545,397.276L609.364,379.184L618.182,379.348L627,419.627L635.818,429.025L644.636,396.438L653.455,391.353L662.273,386.271L671.091,312.987L679.909,307.393L688.727,343.602L697.545,302.088L706.364,311.553L715.182,254.041L724,279.681L732.818,282.756L741.636,270.710L750.455,230.172L759.273,242.214L768.091,201.333L776.909,161.448L785.727,191.366L794.545,194.463L803.364,116.054L812.182,146.580L821,171.815L829.818,165.688L838.636,151.238L847.455,98.662L856.273,77.195L865.091,102.406L873.909,127.626L882.727,95.942L891.545,39.929L900.364,77.527L909.182,38.411L918,47.637"/><path fill="none" stroke="#efb118" stroke-width="1.0" d="M45,249.615L53.818,236.010L62.636,222.490L71.455,209.142L80.273,196.051L89.091,183.298L97.909,170.965L106.727,159.130L115.545,147.868L124.364,137.249L133.182,127.342L142,118.209L150.818,109.907L159.636,102.490L168.455,96.004L177.273,90.490L186.091,85.983L194.909,82.512L203.727,80.098L212.545,78.758L221.364,78.498L230.182,79.322L239,81.224L247.818,84.191L256.636,88.206L265.455,93.242L274.273,99.268L283.091,106.245L291.909,114.130L300.727,122.872L309.545,132.417L318.364,142.703L327.182,153.666L336,165.236L344.818,177.341L353.636,189.902L362.455,202.842L371.273,216.078L380.091,229.526L388.909,243.101L397.727,256.717L406.545,270.289L415.364,283.729L424.182,296.954L433,309.879L441.818,322.423L450.636,334.505L459.455,346.051L468.273,356.986L477.091,367.242L485.909,376.753L494.727,385.459L503.545,393.306L512.364,400.243L521.182,406.227L530,411.219L538.818,415.189L547.636,418.111L556.455,419.966L565.273,420.744L574.091,420.438L582.909,419.051L591.727,416.591L600.545,413.075L609.364,408.524L618.182,402.967L627,396.440L635.818,388.983L644.636,380.645L653.455,371.477L662.273,361.537L671.091,350.890L679.909,339.601L688.727,327.743L697.545,315.390L706.364,302.621L715.182,289.517L724,276.160L732.818,262.635L741.636,249.027L750.455,235.424L759.273,221.910L768.091,208.571L776.909,195.493L785.727,182.757L794.545,170.444L803.364,158.632L812.182,147.396L821,136.806L829.818,126.931L838.636,117.833L847.455,109.568L856.273,102.190L865.091,95.745L873.909,90.274L882.727,85.811L891.545,82.385L900.364,80.018L909.182,78.724L918,78.512"/></g><g aria-label="x-axis tick" stroke="currentColor" fill="white"><path transform="translate(45.0, 455)" d="M0,0L0,6"/><path transform="translate(155.81254087207634, 455)" d="M0,0L0,6"/><path transform="translate(266.6250817441527, 455)" d="M0,0L0,6"/><path transform="translate(377.4376226162291, 455)" d="M0,0L0,6"/><path transform="translate(488.25016348830536, 455)" d="M0,0L0,6"/><path transform="translate(599.0627043603816, 455)" d="M0,0L0,6"/><path transform="translate(709.8752452324582, 455)" d="M0,0L0,6"/><path transform="translate(820.6877861045344, 455)" d="M0,0L0,6"/></g><g aria-label="x-axis tick label" transform="translate(0, 8.5)" text-anchor="middle" fill="white"><text y="0.71em" transform="translate(45.0, 455)">0</text><text y="0.71em" transform="translate(155.81254087207634, 455)">1</text><text y="0.71em" transform="translate(266.6250817441527, 455)">2</text><text y="0.71em" transform="translate(377.4376226162291, 455)">3</text><text y="0.71em" transform="translate(488.25016348830536, 455)">4</text><text y="0.71em" transform="translate(599.0627043603816, 455)">5</text><text y="0.71em" transform="translate(709.8752452324582, 455)">6</text><text y="0.71em" transform="translate(820.6877861045344, 455)">7</text></g><g aria-label="x-axis label" text-anchor="middle" fill="white" transform="translate(0.5, 0)"><text transform="translate(481, 489)">x_values</text></g><g aria-label="y-axis tick" stroke="currentColor" fill="white"><path transform="translate(45, 455.0)" d="M0,0L-6,0"/><path transform="translate(45, 420.7692307692308)" d="M0,0L-6,0"/><path transform="translate(45, 386.53846153846155)" d="M0,0L-6,0"/><path transform="translate(45, 352.30769230769226)" d="M0,0L-6,0"/><path transform="translate(45, 318.0769230769231)" d="M0,0L-6,0"/><path transform="translate(45, 283.8461538461538)" d="M0,0L-6,0"/><path transform="translate(45, 249.6153846153846)" d="M0,0L-6,0"/><path transform="translate(45, 215.38461538461536)" d="M0,0L-6,0"/><path transform="translate(45, 181.1538461538461)" d="M0,0L-6,0"/><path transform="translate(45, 146.92307692307693)" d="M0,0L-6,0"/><path transform="translate(45, 112.69230769230762)" d="M0,0L-6,0"/><path transform="translate(45, 78.46153846153837)" d="M0,0L-6,0"/><path transform="translate(45, 44.23076923076921)" d="M0,0L-6,0"/><path transform="translate(45, 10.0)" d="M0,0L-6,0"/></g><g aria-label="y-axis tick label" transform="translate(-8.5, 0)" text-anchor="end" fill="white"><text y="0.32em" transform="translate(45, 455.0)">-1.2</text><text y="0.32em" transform="translate(45, 420.7692307692308)">-1.0</text><text y="0.32em" transform="translate(45, 386.53846153846155)">-0.8</text><text y="0.32em" transform="translate(45, 352.30769230769226)">-0.6</text><text y="0.32em" transform="translate(45, 318.0769230769231)">-0.4</text><text y="0.32em" transform="translate(45, 283.8461538461538)">-0.2</text><text y="0.32em" transform="translate(45, 249.6153846153846)">0.0</text><text y="0.32em" transform="translate(45, 215.38461538461536)">0.2</text><text y="0.32em" transform="translate(45, 181.1538461538461)">0.4</text><text y="0.32em" transform="translate(45, 146.92307692307693)">0.6</text><text y="0.32em" transform="translate(45, 112.69230769230762)">0.8</text><text y="0.32em" transform="translate(45, 78.46153846153837)">1.0</text><text y="0.32em" transform="translate(45, 44.23076923076921)">1.2</text><text y="0.32em" transform="translate(45, 10.0)">1.4</text></g><g aria-label="y-axis label" text-anchor="middle" fill="white" transform="matrix(0 -1 1 0 0.5 0)"><text transform="translate(-233, 11)">y_values</text></g></g></svg>