<svg xmlns="http://www.w3.org/2000/svg" width="928" height="500" viewBox="0 0 928 500" style="font-size:12px;font-family:sans-serif;color:white;"><g class="canvas"><g class="line"><path fill="none" stroke="white" stroke-width="1.0" d="M120,223.728L127.556,251.754L135.111,226.646L142.667,220.237L150.222,179.237L157.778,173.745L165.333,151.616L172.889,192.659L180.444,163.946L188,180.441L195.556,161.695L203.111,137.483L210.667,160.980L218.222,145.043L225.778,112.622L233.333,115.115L240.889,131.843L248.444,106.650L256,91.366L263.556,139.813L271.111,90.438L278.667,97.657L286.222,121.048L293.778,134.552L301.333,88.102L308.889,129.915L316.444,149.254L324,154.027L331.556,113.496L339.111,134.783L346.667,129.130L354.222,141.290L361.778,161.081L369.333,142.516L376.889,187.810L384.444,186.165L392,178.402L399.556,200.897L407.111,195.602L414.667,222.863L422.222,224.826L429.778,275.123L437.333,273.584L444.889,279.310L452.444,301.502L460,301.107L467.556,317.906L475.111,315.318L482.667,301.168L490.222,325.211L497.778,331.721L505.333,347.870L512.889,349.976L520.444,313.753L528,335.817L535.556,341.802L543.111,371.610L550.667,339.373L558.222,375.521L565.778,362.784L573.333,325.022L580.889,345.533L588.444,348.875L596,338.491L603.556,325.480L611.111,325.598L618.667,354.563L626.222,361.321L633.778,337.888L641.333,334.231L648.889,330.577L656.444,277.878L664,273.855L671.556,299.894L679.111,270.041L686.667,276.847L694.222,235.490L701.778,253.928L709.333,256.139L716.889,247.477L724.444,218.326L732,226.985L739.556,197.588L747.111,168.907L754.667,190.420L762.222,192.648L769.778,136.263L777.333,158.215L784.889,176.362L792.444,171.955L800,161.564L807.556,123.757L815.111,108.320L822.667,126.450L830.222,144.585L837.778,121.801L845.333,81.522L852.889,108.558L860.444,80.430L868,87.065"/></g><g aria-label="x-axis tick" stroke="currentColor" fill="white"><path transform="translate(120.0, 380)" d="M0,0L0,6"/><path transform="translate(214.94591130849153, 380)" d="M0,0L0,6"/><path transform="translate(309.89182261698306, 380)" d="M0,0L0,6"/><path transform="translate(404.8377339254746, 380)" d="M0,0L0,6"/><path transform="translate(499.7836452339661, 380)" d="M0,0L0,6"/><path transform="translate(594.7295565424577, 380)" d="M0,0L0,6"/><path transform="translate(689.6754678509492, 380)" d="M0,0L0,6"/><path transform="translate(784.6213791594407, 380)" d="M0,0L0,6"/></g><g aria-label="x-axis tick label" transform="translate(0, 8.5)" text-anchor="middle" fill="white"><text y="0.71em" transform="translate(120.0, 380)">0</text><text y="0.71em" transform="translate(214.94591130849153, 380)">1</text><text y="0.71em" transform="translate(309.89182261698306, 380)">2</text><text y="0.71em" transform="translate(404.8377339254746, 380)">3</text><text y="0.71em" transform="translate(499.7836452339661, 380)">4</text><text y="0.71em" transform="translate(594.7295565424577, 380)">5</text><text y="0.71em" transform="translate(689.6754678509492, 380)">6</text><text y="0.71em" transform="translate(784.6213791594407, 380)">7</text></g><g aria-label="x-axis label" text-anchor="middle" fill="white" transform="translate(0.5, 0)"><text transform="translate(494, 470)">x_values</text></g><g aria-label="y-axis tick" stroke="currentColor" fill="white"><path transform="translate(120, 380.0)" d="M0,0L-6,0"/><path transform="translate(120, 355.3846153846154)" d="M0,0L-6,0"/><path transform="translate(120, 330.7692307692308)" d="M0,0L-6,0"/><path transform="translate(120, 306.15384615384613)" d="M0,0L-6,0"/><path transform="translate(120, 281.53846153846155)" d="M0,0L-6,0"/><path transform="translate(120, 256.9230769230769)" d="M0,0L-6,0"/><path transform="translate(120, 232.30769230769232)" d="M0,0L-6,0"/><path transform="translate(120, 207.69230769230768)" d="M0,0L-6,0"/><path transform="translate(120, 183.07692307692304)" d="M0,0L-6,0"/><path transform="translate(120, 158.46153846153848)" d="M0,0L-6,0"/><path transform="translate(120, 133.8461538461538)" d="M0,0L-6,0"/><path transform="translate(120, 109.23076923076917)" d="M0,0L-6,0"/><path transform="translate(120, 84.6153846153846)" d="M0,0L-6,0"/><path transform="translate(120, 60.0)" d="M0,0L-6,0"/></g><g aria-label="y-axis tick label" transform="translate(-8.5, 0)" text-anchor="end" fill="white"><text y="0.32em" transform="translate(120, 380.0)">-1.2</text><text y="0.32em" transform="translate(120, 355.3846153846154)">-1.0</text><text y="0.32em" transform="translate(120, 330.7692307692308)">-0.8</text><text y="0.32em" transform="translate(120, 306.15384615384613)">-0.6</text><text y="0.32em" transform="translate(120, 281.53846153846155)">-0.4</text><text y="0.32em" transform="translate(120, 256.9230769230769)">-0.2</text><text y="0.32em" transform="translate(120, 232.30769230769232)">0.0</text><text y="0.32em" transform="translate(120, 207.69230769230768)">0.2</text><text y="0.32em" transform="translate(120, 183.07692307692304)">0.4</text><text y="0.32em" transform="translate(120, 158.46153846153848)">0.6</text><text y="0.32em" transform="translate(120, 133.8461538461538)">0.8</text><text y="0.32em" transform="translate(120, 109.23076923076917)">1.0</text><text y="0.32em" transform="translate(120, 84.6153846153846)">1.2</text><text y="0.32em" transform="translate(120, 60.0)">1.4</text></g><g aria-label="y-axis label" text-anchor="middle" fill="white" transform="matrix(0 -1 1 0 0.5 0)"><text transform="translate(-220, 30)">y_values</text></g></g></svg>