<svg xmlns="http://www.w3.org/2000/svg" width="928" height="500" viewBox="0 0 928 500" style="font-size:12px;font-family:sans-serif;color:#e6edf3;"><g class="canvas"><g class="bars"><rect x="45.0" y="437.9501915708813" width="878.1157744694331" height="15.344827586206899" fill="steelblue" stroke="none" stroke-width="1.0"/><rect x="45.0" y="420.9003831417625" width="626.0601837187203" height="15.344827586206899" fill="steelblue" stroke="none" stroke-width="1.0"/><rect x="45.0" y="403.8505747126437" width="564.6017579980994" height="15.344827586206899" fill="steelblue" stroke="none" stroke-width="1.0"/><rect x="45.0" y="386.8007662835249" width="518.9745802977509" height="15.344827586206899" fill="steelblue" stroke="none" stroke-width="1.0"/><rect x="45.0" y="369.7509578544061" width="481.57412100095024" height="15.344827586206899" fill="steelblue" stroke="none" stroke-width="1.0"/><rect x="45.0" y="352.7011494252873" width="466.572458029775" height="15.344827586206899" fill="steelblue" stroke="none" stroke-width="1.0"/><rect x="45.0" y="335.65134099616864" width="437.398717136522" height="15.344827586206899" fill="steelblue" stroke="none" stroke-width="1.0"/><rect x="45.0" y="318.60153256704984" width="421.29094076655053" height="15.344827586206899" fill="steelblue" stroke="none" stroke-width="1.0"/><rect x="45.0" y="301.55172413793105" width="413.8938074121001" height="15.344827586206899" fill="steelblue" stroke="none" stroke-width="1.0"/><rect x="45.0" y="284.50191570881225" width="294.01876781754834" height="15.344827586206899" fill="steelblue" stroke="none" stroke-width="1.0"/><rect x="45.0" y="267.4521072796935" width="278.2566518847007" height="15.344827586206899" fill="steelblue" stroke="none" stroke-width="1.0"/><rect x="45.0" y="250.40229885057474" width="192.3254672157111" height="15.344827586206899" fill="steelblue" stroke="none" stroke-width="1.0"/><rect x="45.0" y="233.35249042145594" width="190.66629711751665" height="15.344827586206899" fill="steelblue" stroke="none" stroke-width="1.0"/><rect x="45.0" y="216.30268199233717" width="166.33180234399748" height="15.344827586206899" fill="steelblue" stroke="none" stroke-width="1.0"/><rect x="45.0" y="199.2528735632184" width="163.15172632245802" height="15.344827586206899" fill="steelblue" stroke="none" stroke-width="1.0"/><rect x="45.0" y="182.2030651340996" width="158.17421602787456" height="15.344827586206899" fill="steelblue" stroke="none" stroke-width="1.0"/><rect x="45.0" y="165.15325670498083" width="139.30115616091223" height="15.344827586206899" fill="steelblue" stroke="none" stroke-width="1.0"/><rect x="45.0" y="148.10344827586206" width="136.46674057649668" height="15.344827586206899" fill="steelblue" stroke="none" stroke-width="1.0"/><rect x="45.0" y="131.0536398467433" width="133.35579664238202" height="15.344827586206899" fill="steelblue" stroke="none" stroke-width="1.0"/><rect x="45.0" y="114.00383141762451" width="103.14507443775736" height="15.344827586206899" fill="steelblue" stroke="none" stroke-width="1.0"/><rect x="45.0" y="96.95402298850573" width="67.61118150142542" height="15.344827586206899" fill="steelblue" stroke="none" stroke-width="1.0"/><rect x="45.0" y="79.90421455938696" width="53.36997149192271" height="15.344827586206899" fill="steelblue" stroke="none" stroke-width="1.0"/><rect x="45.0" y="62.85440613026818" width="10.577209375989867" height="15.344827586206899" fill="steelblue" stroke="none" stroke-width="1.0"/><rect x="45.0" y="45.804597701149405" width="10.369813113715551" height="15.344827586206899" fill="steelblue" stroke="none" stroke-width="1.0"/><rect x="45.0" y="28.754789272030628" width="6.567548305353178" height="15.344827586206899" fill="steelblue" stroke="none" stroke-width="1.0"/><rect x="45.0" y="11.704980842911851" width="5.115774469433006" height="15.344827586206899" fill="steelblue" stroke="none" stroke-width="1.0"/></g><g aria-label="x-axis tick" stroke="currentColor" fill="#e6edf3"><path transform="translate(109.01631295533736, 455)" d="M0,0L0,6"/><path transform="translate(178.1484003801077, 455)" d="M0,0L0,6"/><path transform="translate(247.28048780487802, 455)" d="M0,0L0,6"/><path transform="translate(316.41257522964844, 455)" d="M0,0L0,6"/><path transform="translate(385.54466265441874, 455)" d="M0,0L0,6"/><path transform="translate(454.6767500791891, 455)" d="M0,0L0,6"/><path transform="translate(523.8088375039595, 455)" d="M0,0L0,6"/><path transform="translate(592.9409249287298, 455)" d="M0,0L0,6"/><path transform="translate(662.0730123535001, 455)" d="M0,0L0,6"/><path transform="translate(731.2050997782704, 455)" d="M0,0L0,6"/><path transform="translate(800.3371872030409, 455)" d="M0,0L0,6"/><path transform="translate(869.4692746278112, 455)" d="M0,0L0,6"/></g><g aria-label="x-axis tick label" transform="translate(0, 8.5)" text-anchor="middle" fill="#e6edf3"><text y="0.71em" transform="translate(109.01631295533736, 455)">0.01</text><text y="0.71em" transform="translate(178.1484003801077, 455)">0.02</text><text y="0.71em" transform="translate(247.28048780487802, 455)">0.03</text><text y="0.71em" transform="translate(316.41257522964844, 455)">0.04</text><text y="0.71em" transform="translate(385.54466265441874, 455)">0.05</text><text y="0.71em" transform="translate(454.6767500791891, 455)">0.06</text><text y="0.71em" transform="translate(523.8088375039595, 455)">0.07</text><text y="0.71em" transform="translate(592.9409249287298, 455)">0.08</text><text y="0.71em" transform="translate(662.0730123535001, 455)">0.09</text><text y="0.71em" transform="translate(731.2050997782704, 455)">0.10</text><text y="0.71em" transform="translate(800.3371872030409, 455)">0.11</text><text y="0.71em" transform="translate(869.4692746278112, 455)">0.12</text></g><g aria-label="x-axis label" text-anchor="middle" fill="#e6edf3" transform="translate(0.5, 0)"><text transform="translate(481, 489)">frequency</text></g><g aria-label="y-axis tick" stroke="currentColor" fill="#e6edf3"><path transform="translate(45, 445.62260536398475)" d="M0,0L-6,0"/><path transform="translate(45, 428.57279693486595)" d="M0,0L-6,0"/><path transform="translate(45, 411.52298850574715)" d="M0,0L-6,0"/><path transform="translate(45, 394.47318007662835)" d="M0,0L-6,0"/><path transform="translate(45, 377.42337164750955)" d="M0,0L-6,0"/><path transform="translate(45, 360.37356321839076)" d="M0,0L-6,0"/><path transform="translate(45, 343.3237547892721)" d="M0,0L-6,0"/><path transform="translate(45, 326.2739463601533)" d="M0,0L-6,0"/><path transform="translate(45, 309.2241379310345)" d="M0,0L-6,0"/><path transform="translate(45, 292.1743295019157)" d="M0,0L-6,0"/><path transform="translate(45, 275.12452107279694)" d="M0,0L-6,0"/><path transform="translate(45, 258.0747126436782)" d="M0,0L-6,0"/><path transform="translate(45, 241.0249042145594)" d="M0,0L-6,0"/><path transform="translate(45, 223.97509578544063)" d="M0,0L-6,0"/><path transform="translate(45, 206.92528735632186)" d="M0,0L-6,0"/><path transform="translate(45, 189.87547892720306)" d="M0,0L-6,0"/><path transform="translate(45, 172.8256704980843)" d="M0,0L-6,0"/><path transform="translate(45, 155.77586206896552)" d="M0,0L-6,0"/><path transform="translate(45, 138.72605363984675)" d="M0,0L-6,0"/><path transform="translate(45, 121.67624521072796)" d="M0,0L-6,0"/><path transform="translate(45, 104.62643678160917)" d="M0,0L-6,0"/><path transform="translate(45, 87.5766283524904)" d="M0,0L-6,0"/><path transform="translate(45, 70.52681992337163)" d="M0,0L-6,0"/><path transform="translate(45, 53.47701149425286)" d="M0,0L-6,0"/><path transform="translate(45, 36.42720306513408)" d="M0,0L-6,0"/><path transform="translate(45, 19.3773946360153)" d="M0,0L-6,0"/></g><g aria-label="y-axis tick label" transform="translate(-8.5, 0)" text-anchor="end" fill="#e6edf3"><text y="0.32em" transform="translate(45, 445.62260536398475)">E</text><text y="0.32em" transform="translate(45, 428.57279693486595)">T</text><text y="0.32em" transform="translate(45, 411.52298850574715)">A</text><text y="0.32em" transform="translate(45, 394.47318007662835)">O</text><text y="0.32em" transform="translate(45, 377.42337164750955)">I</text><text y="0.32em" transform="translate(45, 360.37356321839076)">N</text><text y="0.32em" transform="translate(45, 343.3237547892721)">S</text><text y="0.32em" transform="translate(45, 326.2739463601533)">H</text><text y="0.32em" transform="translate(45, 309.2241379310345)">R</text><text y="0.32em" transform="translate(45, 292.1743295019157)">D</text><text y="0.32em" transform="translate(45, 275.12452107279694)">L</text><text y="0.32em" transform="translate(45, 258.0747126436782)">C</text><text y="0.32em" transform="translate(45, 241.0249042145594)">U</text><text y="0.32em" transform="translate(45, 223.97509578544063)">M</text><text y="0.32em" transform="translate(45, 206.92528735632186)">W</text><text y="0.32em" transform="translate(45, 189.87547892720306)">F</text><text y="0.32em" transform="translate(45, 172.8256704980843)">G</text><text y="0.32em" transform="translate(45, 155.77586206896552)">Y</text><text y="0.32em" transform="translate(45, 138.72605363984675)">P</text><text y="0.32em" transform="translate(45, 121.67624521072796)">B</text><text y="0.32em" transform="translate(45, 104.62643678160917)">V</text><text y="0.32em" transform="translate(45, 87.5766283524904)">K</text><text y="0.32em" transform="translate(45, 70.52681992337163)">J</text><text y="0.32em" transform="translate(45, 53.47701149425286)">X</text><text y="0.32em" transform="translate(45, 36.42720306513408)">Q</text><text y="0.32em" transform="translate(45, 19.3773946360153)">Z</text></g><g aria-label="y-axis label" text-anchor="middle" fill="#e6edf3" transform="matrix(0 -1 1 0 0.5 0)"><text transform="translate(-233.0, 11)">letter</text></g></g></svg>