<svg xmlns="http://www.w3.org/2000/svg" width="640" height="502" viewBox="0 0 640 502" style="font-size:12px;font-family:sans-serif;color:white;"><g class="legend"><g class="legend" transform="translate(15, 21)"><g transform="translate(0, 0)"><rect x="-7.5" y="-7.5" width="15" height="15" fill="#4269d0" style="stroke:none;"/><text x="11.5" y="4" style="fill:currentColor;font-size:12;">$y = x$</text></g><g transform="translate(72.0, 0)"><rect x="-7.5" y="-7.5" width="15" height="15" fill="#efb118" style="stroke:none;"/><text x="11.5" y="4" style="fill:currentColor;font-size:12;">$y = x^2$</text></g><g transform="translate(156.0, 0)"><rect x="-7.5" y="-7.5" width="15" height="15" fill="#ff725c" style="stroke:none;"/><text x="11.5" y="4" style="fill:currentColor;font-size:12;">$y = x^3$</text></g></g></g><g class="canvas" transform="translate(0, 50)"><g class="line"><path fill="none" stroke="#4269d0" stroke-width="1.0" d="M45,407L74.250,406.950L103.500,406.901L132.750,406.851L162,406.802L191.250,406.752L220.500,406.702L249.750,406.653L279,406.603L308.250,406.553L337.500,406.504L366.750,406.454L396,406.404L425.250,406.355L454.500,406.305L483.750,406.256L513,406.206L542.250,406.156L571.500,406.107L600.750,406.057L630,406.007"/><path fill="none" stroke="#efb118" stroke-width="1.0" d="M45,407L74.250,406.950L103.500,406.802L132.750,406.553L162,406.206L191.250,405.759L220.500,405.214L249.750,404.568L279,403.824L308.250,402.980L337.500,402.038L366.750,400.995L396,399.854L425.250,398.613L454.500,397.274L483.750,395.834L513,394.296L542.250,392.658L571.500,390.921L600.750,389.085L630,387.150"/><path fill="none" stroke="#ff725c" stroke-width="1.0" d="M45,407L74.250,406.950L103.500,406.603L132.750,405.660L162,403.824L191.250,400.797L220.500,396.281L249.750,389.979L279,381.592L308.250,370.823L337.500,357.375L366.750,340.949L396,321.248L425.250,297.974L454.500,270.829L483.750,239.516L513,203.736L542.250,163.192L571.500,117.587L600.750,66.622L630,10"/></g><g aria-label="x-axis tick" stroke="currentColor" fill="white"><path transform="translate(45.0, 407)" d="M0,0L0,6"/><path transform="translate(103.5, 407)" d="M0,0L0,6"/><path transform="translate(162.0, 407)" d="M0,0L0,6"/><path transform="translate(220.5, 407)" d="M0,0L0,6"/><path transform="translate(279.0, 407)" d="M0,0L0,6"/><path transform="translate(337.5, 407)" d="M0,0L0,6"/><path transform="translate(396.0, 407)" d="M0,0L0,6"/><path transform="translate(454.5, 407)" d="M0,0L0,6"/><path transform="translate(513.0, 407)" d="M0,0L0,6"/><path transform="translate(571.5, 407)" d="M0,0L0,6"/><path transform="translate(630.0, 407)" d="M0,0L0,6"/></g><g aria-label="x-axis tick label" transform="translate(0, 8.5)" text-anchor="middle" fill="white"><text y="0.71em" transform="translate(45.0, 407)">0</text><text y="0.71em" transform="translate(103.5, 407)">2</text><text y="0.71em" transform="translate(162.0, 407)">4</text><text y="0.71em" transform="translate(220.5, 407)">6</text><text y="0.71em" transform="translate(279.0, 407)">8</text><text y="0.71em" transform="translate(337.5, 407)">10</text><text y="0.71em" transform="translate(396.0, 407)">12</text><text y="0.71em" transform="translate(454.5, 407)">14</text><text y="0.71em" transform="translate(513.0, 407)">16</text><text y="0.71em" transform="translate(571.5, 407)">18</text><text y="0.71em" transform="translate(630.0, 407)">20</text></g><g aria-label="x-axis label" text-anchor="middle" fill="white" transform="translate(0.5, 0)"><text transform="translate(337, 441)">x</text></g><g aria-label="y-axis tick" stroke="currentColor" fill="white"><path transform="translate(45, 407.0)" d="M0,0L-6,0"/><path transform="translate(45, 357.375)" d="M0,0L-6,0"/><path transform="translate(45, 307.75)" d="M0,0L-6,0"/><path transform="translate(45, 258.125)" d="M0,0L-6,0"/><path transform="translate(45, 208.5)" d="M0,0L-6,0"/><path transform="translate(45, 158.875)" d="M0,0L-6,0"/><path transform="translate(45, 109.25)" d="M0,0L-6,0"/><path transform="translate(45, 59.625)" d="M0,0L-6,0"/><path transform="translate(45, 10.0)" d="M0,0L-6,0"/></g><g aria-label="y-axis tick label" transform="translate(-8.5, 0)" text-anchor="end" fill="white"><text y="0.32em" transform="translate(45, 407.0)">0k</text><text y="0.32em" transform="translate(45, 357.375)">1k</text><text y="0.32em" transform="translate(45, 307.75)">2k</text><text y="0.32em" transform="translate(45, 258.125)">3k</text><text y="0.32em" transform="translate(45, 208.5)">4k</text><text y="0.32em" transform="translate(45, 158.875)">5k</text><text y="0.32em" transform="translate(45, 109.25)">6k</text><text y="0.32em" transform="translate(45, 59.625)">7k</text><text y="0.32em" transform="translate(45, 10.0)">8k</text></g><g aria-label="y-axis label" text-anchor="middle" fill="white" transform="matrix(0 -1 1 0 0.5 0)"><text transform="translate(-209, 11)">y</text></g></g></svg>