<svg xmlns="http://www.w3.org/2000/svg" width="928" height="500" viewBox="0 0 928 500" style="font-size:12px;font-family:sans-serif;color:#e6edf3;"><g class="bars"><rect x="63.28735632183907" y="20.200769230769286" height="434.7992307692307" width="29.586206896551726" fill="#ffc105" stroke="none" stroke-width="1.0"/><rect x="96.16091954022988" y="145.00615384615384" height="309.99384615384616" width="29.586206896551726" fill="#ffc105" stroke="none" stroke-width="1.0"/><rect x="129.0344827586207" y="175.43730769230768" height="279.5626923076923" width="29.586206896551726" fill="#ffc105" stroke="none" stroke-width="1.0"/><rect x="161.90804597701148" y="198.02961538461537" height="256.97038461538466" width="29.586206896551726" fill="#ffc105" stroke="none" stroke-width="1.0"/><rect x="194.7816091954023" y="216.54846153846154" height="238.45153846153846" width="29.586206896551726" fill="#ffc105" stroke="none" stroke-width="1.0"/><rect x="227.6551724137931" y="223.9765384615385" height="231.0234615384615" width="29.586206896551726" fill="#ffc105" stroke="none" stroke-width="1.0"/><rect x="260.5287356321839" y="238.42192307692306" height="216.57807692307694" width="29.586206896551726" fill="#ffc105" stroke="none" stroke-width="1.0"/><rect x="293.4022988505747" y="246.3976923076923" height="208.6023076923077" width="29.586206896551726" fill="#ffc105" stroke="none" stroke-width="1.0"/><rect x="326.2758620689655" y="250.0603846153846" height="204.9396153846154" width="29.586206896551726" fill="#ffc105" stroke="none" stroke-width="1.0"/><rect x="359.14942528735634" y="309.4165384615385" height="145.5834615384615" width="29.586206896551726" fill="#ffc105" stroke="none" stroke-width="1.0"/><rect x="392.02298850574715" y="317.22115384615387" height="137.77884615384613" width="29.586206896551726" fill="#ffc105" stroke="none" stroke-width="1.0"/><rect x="424.89655172413796" y="359.77" height="95.23000000000002" width="29.586206896551726" fill="#ffc105" stroke="none" stroke-width="1.0"/><rect x="457.7701149425287" y="360.5915384615385" height="94.4084615384615" width="29.586206896551726" fill="#ffc105" stroke="none" stroke-width="1.0"/><rect x="490.64367816091954" y="372.6407692307692" height="82.3592307692308" width="29.586206896551726" fill="#ffc105" stroke="none" stroke-width="1.0"/><rect x="523.5172413793103" y="374.2153846153846" height="80.78461538461539" width="29.586206896551726" fill="#ffc105" stroke="none" stroke-width="1.0"/><rect x="556.3908045977012" y="376.68" height="78.32" width="29.586206896551726" fill="#ffc105" stroke="none" stroke-width="1.0"/><rect x="589.264367816092" y="386.025" height="68.97500000000002" width="29.586206896551726" fill="#ffc105" stroke="none" stroke-width="1.0"/><rect x="622.1379310344828" y="387.4284615384616" height="67.57153846153841" width="29.586206896551726" fill="#ffc105" stroke="none" stroke-width="1.0"/><rect x="655.0114942528736" y="388.9688461538462" height="66.03115384615381" width="29.586206896551726" fill="#ffc105" stroke="none" stroke-width="1.0"/><rect x="687.8850574712644" y="403.9276923076923" height="51.072307692307675" width="29.586206896551726" fill="#ffc105" stroke="none" stroke-width="1.0"/><rect x="720.7586206896552" y="421.52230769230766" height="33.47769230769234" width="29.586206896551726" fill="#ffc105" stroke="none" stroke-width="1.0"/><rect x="753.632183908046" y="428.57384615384615" height="26.426153846153852" width="29.586206896551726" fill="#ffc105" stroke="none" stroke-width="1.0"/><rect x="786.5057471264369" y="449.7626923076923" height="5.237307692307695" width="29.586206896551726" fill="#ffc105" stroke="none" stroke-width="1.0"/><rect x="819.3793103448277" y="449.86538461538464" height="5.134615384615358" width="29.586206896551726" fill="#ffc105" stroke="none" stroke-width="1.0"/><rect x="852.2528735632184" y="451.7480769230769" height="3.251923076923106" width="29.586206896551726" fill="#ffc105" stroke="none" stroke-width="1.0"/><rect x="885.1264367816092" y="452.4669230769231" height="2.5330769230769192" width="29.586206896551726" fill="#ffc105" stroke="none" stroke-width="1.0"/></g><g aria-label="x-axis tick" stroke="currentColor" fill="#e6edf3"><path transform="translate(78.08045977011493, 455)" d="M0,0L0,6"/><path transform="translate(110.95402298850574, 455)" d="M0,0L0,6"/><path transform="translate(143.82758620689657, 455)" d="M0,0L0,6"/><path transform="translate(176.70114942528735, 455)" d="M0,0L0,6"/><path transform="translate(209.57471264367817, 455)" d="M0,0L0,6"/><path transform="translate(242.44827586206898, 455)" d="M0,0L0,6"/><path transform="translate(275.32183908045977, 455)" d="M0,0L0,6"/><path transform="translate(308.1954022988506, 455)" d="M0,0L0,6"/><path transform="translate(341.0689655172414, 455)" d="M0,0L0,6"/><path transform="translate(373.9425287356322, 455)" d="M0,0L0,6"/><path transform="translate(406.816091954023, 455)" d="M0,0L0,6"/><path transform="translate(439.68965517241384, 455)" d="M0,0L0,6"/><path transform="translate(472.5632183908046, 455)" d="M0,0L0,6"/><path transform="translate(505.4367816091954, 455)" d="M0,0L0,6"/><path transform="translate(538.3103448275862, 455)" d="M0,0L0,6"/><path transform="translate(571.183908045977, 455)" d="M0,0L0,6"/><path transform="translate(604.0574712643678, 455)" d="M0,0L0,6"/><path transform="translate(636.9310344827586, 455)" d="M0,0L0,6"/><path transform="translate(669.8045977011494, 455)" d="M0,0L0,6"/><path transform="translate(702.6781609195402, 455)" d="M0,0L0,6"/><path transform="translate(735.551724137931, 455)" d="M0,0L0,6"/><path transform="translate(768.4252873563219, 455)" d="M0,0L0,6"/><path transform="translate(801.2988505747127, 455)" d="M0,0L0,6"/><path transform="translate(834.1724137931035, 455)" d="M0,0L0,6"/><path transform="translate(867.0459770114942, 455)" d="M0,0L0,6"/><path transform="translate(899.919540229885, 455)" d="M0,0L0,6"/></g><g aria-label="x-axis tick label" transform="translate(0, 8.5)" text-anchor="middle" fill="#e6edf3"><text y="0.71em" transform="translate(78.08045977011493, 455)">E</text><text y="0.71em" transform="translate(110.95402298850574, 455)">T</text><text y="0.71em" transform="translate(143.82758620689657, 455)">A</text><text y="0.71em" transform="translate(176.70114942528735, 455)">O</text><text y="0.71em" transform="translate(209.57471264367817, 455)">I</text><text y="0.71em" transform="translate(242.44827586206898, 455)">N</text><text y="0.71em" transform="translate(275.32183908045977, 455)">S</text><text y="0.71em" transform="translate(308.1954022988506, 455)">H</text><text y="0.71em" transform="translate(341.0689655172414, 455)">R</text><text y="0.71em" transform="translate(373.9425287356322, 455)">D</text><text y="0.71em" transform="translate(406.816091954023, 455)">L</text><text y="0.71em" transform="translate(439.68965517241384, 455)">C</text><text y="0.71em" transform="translate(472.5632183908046, 455)">U</text><text y="0.71em" transform="translate(505.4367816091954, 455)">M</text><text y="0.71em" transform="translate(538.3103448275862, 455)">W</text><text y="0.71em" transform="translate(571.183908045977, 455)">F</text><text y="0.71em" transform="translate(604.0574712643678, 455)">G</text><text y="0.71em" transform="translate(636.9310344827586, 455)">Y</text><text y="0.71em" transform="translate(669.8045977011494, 455)">P</text><text y="0.71em" transform="translate(702.6781609195402, 455)">B</text><text y="0.71em" transform="translate(735.551724137931, 455)">V</text><text y="0.71em" transform="translate(768.4252873563219, 455)">K</text><text y="0.71em" transform="translate(801.2988505747127, 455)">J</text><text y="0.71em" transform="translate(834.1724137931035, 455)">X</text><text y="0.71em" transform="translate(867.0459770114942, 455)">Q</text><text y="0.71em" transform="translate(899.919540229885, 455)">Z</text></g><g aria-label="x-axis label" text-anchor="middle" fill="#e6edf3" transform="translate(0.5, 0)"><text transform="translate(489.0, 489)">letter</text></g><g aria-label="y-axis tick" stroke="currentColor" fill="#e6edf3"><path transform="translate(60, 455.0)" d="M0,0L-6,0"/><path transform="translate(60, 420.7692307692308)" d="M0,0L-6,0"/><path transform="translate(60, 386.53846153846155)" d="M0,0L-6,0"/><path transform="translate(60, 352.3076923076923)" d="M0,0L-6,0"/><path transform="translate(60, 318.0769230769231)" d="M0,0L-6,0"/><path transform="translate(60, 283.84615384615387)" d="M0,0L-6,0"/><path transform="translate(60, 249.61538461538464)" d="M0,0L-6,0"/><path transform="translate(60, 215.38461538461536)" d="M0,0L-6,0"/><path transform="translate(60, 181.15384615384613)" d="M0,0L-6,0"/><path transform="translate(60, 146.92307692307693)" d="M0,0L-6,0"/><path transform="translate(60, 112.69230769230768)" d="M0,0L-6,0"/><path transform="translate(60, 78.46153846153847)" d="M0,0L-6,0"/><path transform="translate(60, 44.230769230769255)" d="M0,0L-6,0"/><path transform="translate(60, 10.0)" d="M0,0L-6,0"/></g><g aria-label="y-axis tick label" transform="translate(-8.5, 0)" text-anchor="end" fill="#e6edf3"><text y="0.32em" transform="translate(60, 455.0)">0.00</text><text y="0.32em" transform="translate(60, 420.7692307692308)">0.01</text><text y="0.32em" transform="translate(60, 386.53846153846155)">0.02</text><text y="0.32em" transform="translate(60, 352.3076923076923)">0.03</text><text y="0.32em" transform="translate(60, 318.0769230769231)">0.04</text><text y="0.32em" transform="translate(60, 283.84615384615387)">0.05</text><text y="0.32em" transform="translate(60, 249.61538461538464)">0.06</text><text y="0.32em" transform="translate(60, 215.38461538461536)">0.07</text><text y="0.32em" transform="translate(60, 181.15384615384613)">0.08</text><text y="0.32em" transform="translate(60, 146.92307692307693)">0.09</text><text y="0.32em" transform="translate(60, 112.69230769230768)">0.10</text><text y="0.32em" transform="translate(60, 78.46153846153847)">0.11</text><text y="0.32em" transform="translate(60, 44.230769230769255)">0.12</text><text y="0.32em" transform="translate(60, 10.0)">0.13</text></g><g aria-label="y-axis label" text-anchor="middle" fill="#e6edf3" transform="matrix(0 -1 1 0 0.5 0)"><text transform="translate(-233, 15)">frequency</text></g></svg>
